  0
SECTION
  2
HEADER
  9
$ACADVER
  1
AC1014
  9
$HANDSEED
  5
FFFF
  9
$MEASUREMENT
 70
     1
  0
ENDSEC
  0
SECTION
  2
TABLES
  0
TABLE
  2
VPORT
  5
8
330
0
100
AcDbSymbolTable
 70
     4
  0
VPORT
  5
2E
330
8
100
AcDbSymbolTableRecord
100
AcDbViewportTableRecord
  2
*ACTIVE
 70
     0
 10
0.0
 20
0.0
 11
1.0
 21
1.0
 12
210.0
 22
148.5
 13
0.0
 23
0.0
 14
10.0
 24
10.0
 15
10.0
 25
10.0
 16
0.0
 26
0.0
 36
1.0
 17
0.0
 27
0.0
 37
0.0
 40
341.0
 41
1.24
 42
50.0
 43
0.0
 44
0.0
 50
0.0
 51
0.0
 71
     0
 72
   100
 73
     1
 74
     3
 75
     0
 76
     0
 77
     0
 78
     0
  0
ENDTAB
  0
TABLE
  2
LTYPE
  5
5
330
0
100
AcDbSymbolTable
 70
     1
  0
LTYPE
  5
14
330
5
100
AcDbSymbolTableRecord
100
AcDbLinetypeTableRecord
  2
BYBLOCK
 70
     0
  3

 72
    65
 73
     0
 40
0.0
  0
LTYPE
  5
15
330
5
100
AcDbSymbolTableRecord
100
AcDbLinetypeTableRecord
  2
BYLAYER
 70
     0
  3

 72
    65
 73
     0
 40
0.0
  0
LTYPE
  5
16
330
5
100
AcDbSymbolTableRecord
100
AcDbLinetypeTableRecord
  2
CONTINUOUS
 70
     0
  3
Solid line
 72
    65
 73
     0
 40
0.0
  0
ENDTAB
  0
TABLE
  2
LAYER
  5
2
100
AcDbSymbolTable
 70
1
  0
LAYER
  5
50
100
AcDbSymbolTableRecord
100
AcDbLayerTableRecord
  2
0
 70
0
  6
CONTINUOUS
  0
ENDTAB
  0
TABLE
  2
STYLE
  5
3
330
0
100
AcDbSymbolTable
 70
     1
  0
STYLE
  5
11
330
3
100
AcDbSymbolTableRecord
100
AcDbTextStyleTableRecord
  2
STANDARD
 70
     0
 40
0.0
 41
1.0
 50
0.0
 71
     0
 42
2.5
  3
txt
  4

  0
ENDTAB
  0
TABLE
  2
VIEW
  5
6
330
0
100
AcDbSymbolTable
 70
     0
  0
ENDTAB
  0
TABLE
  2
UCS
  5
7
330
0
100
AcDbSymbolTable
 70
     0
  0
ENDTAB
  0
TABLE
  2
APPID
  5
9
330
0
100
AcDbSymbolTable
 70
     2
  0
APPID
  5
12
330
9
100
AcDbSymbolTableRecord
100
AcDbRegAppTableRecord
  2
ACAD
 70
     0
  0
ENDTAB
  0
TABLE
  2
DIMSTYLE
  5
A
330
0
100
AcDbSymbolTable
 70
     1
  0
DIMSTYLE
105
27
330
A
100
AcDbSymbolTableRecord
100
AcDbDimStyleTableRecord
  2
ISO-25
 70
     0
  3

  4

  5

  6

  7

 40
1.0
 41
2.5
 42
0.625
 43
3.75
 44
1.25
 45
0.0
 46
0.0
 47
0.0
 48
0.0
140
2.5
141
2.5
142
0.0
143
0.03937007874016
144
1.0
145
0.0
146
1.0
147
0.625
 71
     0
 72
     0
 73
     0
 74
     0
 75
     0
 76
     0
 77
     1
 78
     8
170
     0
171
     3
172
     1
173
     0
174
     0
175
     0
176
     0
177
     0
178
     0
270
     2
271
     2
272
     2
273
     2
274
     3
340
11
275
     0
280
     0
281
     0
282
     0
283
     0
284
     8
285
     0
286
     0
287
     3
288
     0
  0
ENDTAB
  0
TABLE
  2
BLOCK_RECORD
  5
1
330
0
100
AcDbSymbolTable
 70
     1
  0
BLOCK_RECORD
  5
1F
330
1
100
AcDbSymbolTableRecord
100
AcDbBlockTableRecord
  2
*MODEL_SPACE
  0
BLOCK_RECORD
  5
1B
330
1
100
AcDbSymbolTableRecord
100
AcDbBlockTableRecord
  2
*PAPER_SPACE
  0
ENDTAB
  0
ENDSEC
  0
SECTION
  2
BLOCKS
  0
BLOCK
  5
20
330
1F
100
AcDbEntity
  8
0
100
AcDbBlockBegin
  2
*MODEL_SPACE
 70
     0
 10
0.0
 20
0.0
 30
0.0
  3
*MODEL_SPACE
  1

  0
ENDBLK
  5
21
330
1F
100
AcDbEntity
  8
0
100
AcDbBlockEnd
  0
BLOCK
  5
1C
330
1B
100
AcDbEntity
 67
     1
  8
0
100
AcDbBlockBegin
  2
*PAPER_SPACE
  1

  0
ENDBLK
  5
1D
330
1B
100
AcDbEntity
 67
     1
  8
0
100
AcDbBlockEnd
  0
ENDSEC
  0
SECTION
  2
ENTITIES
  0
SPLINE
  5
100
100
AcDbEntity
  8
0
 62
5
100
AcDbSpline
 70
8
 71
3
 72
8
 73
4
 74
0
 40
0
 40
0
 40
0
 40
0
 40
1
 40
1
 40
1
 40
1
 10
95.780497
 20
657.957161
 30
0.0
 10
95.780497
 20
658.510842
 30
0.0
 10
95.485112
 20
659.022464
 30
0.0
 10
95.005611
 20
659.299305
 30
0.0
  0
SPLINE
  5
101
100
AcDbEntity
  8
0
 62
5
100
AcDbSpline
 70
8
 71
3
 72
8
 73
4
 74
0
 40
0
 40
0
 40
0
 40
0
 40
1
 40
1
 40
1
 40
1
 10
95.005611
 20
659.299305
 30
0.0
 10
94.526109
 20
659.576145
 30
0.0
 10
93.935339
 20
659.576145
 30
0.0
 10
93.455837
 20
659.299305
 30
0.0
  0
SPLINE
  5
102
100
AcDbEntity
  8
0
 62
5
100
AcDbSpline
 70
8
 71
3
 72
8
 73
4
 74
0
 40
0
 40
0
 40
0
 40
0
 40
1
 40
1
 40
1
 40
1
 10
93.455837
 20
659.299305
 30
0.0
 10
92.976335
 20
659.022464
 30
0.0
 10
92.680950
 20
658.510842
 30
0.0
 10
92.680950
 20
657.957161
 30
0.0
  0
SPLINE
  5
103
100
AcDbEntity
  8
0
 62
5
100
AcDbSpline
 70
8
 71
3
 72
8
 73
4
 74
0
 40
0
 40
0
 40
0
 40
0
 40
1
 40
1
 40
1
 40
1
 10
92.680950
 20
657.957161
 30
0.0
 10
92.680950
 20
657.403480
 30
0.0
 10
92.976335
 20
656.891858
 30
0.0
 10
93.455837
 20
656.615018
 30
0.0
  0
SPLINE
  5
104
100
AcDbEntity
  8
0
 62
5
100
AcDbSpline
 70
8
 71
3
 72
8
 73
4
 74
0
 40
0
 40
0
 40
0
 40
0
 40
1
 40
1
 40
1
 40
1
 10
93.455837
 20
656.615018
 30
0.0
 10
93.935339
 20
656.338177
 30
0.0
 10
94.526109
 20
656.338177
 30
0.0
 10
95.005611
 20
656.615018
 30
0.0
  0
SPLINE
  5
105
100
AcDbEntity
  8
0
 62
5
100
AcDbSpline
 70
8
 71
3
 72
8
 73
4
 74
0
 40
0
 40
0
 40
0
 40
0
 40
1
 40
1
 40
1
 40
1
 10
95.005611
 20
656.615018
 30
0.0
 10
95.485112
 20
656.891858
 30
0.0
 10
95.780497
 20
657.403480
 30
0.0
 10
95.780497
 20
657.957161
 30
0.0
  0
SPLINE
  5
106
100
AcDbEntity
  8
0
 62
5
100
AcDbSpline
 70
8
 71
3
 72
8
 73
4
 74
0
 40
0
 40
0
 40
0
 40
0
 40
1
 40
1
 40
1
 40
1
 10
145.373137
 20
657.957161
 30
0.0
 10
145.373436
 20
658.511040
 30
0.0
 10
145.078117
 20
659.022972
 30
0.0
 10
144.598494
 20
659.299998
 30
0.0
  0
SPLINE
  5
107
100
AcDbEntity
  8
0
 62
5
100
AcDbSpline
 70
8
 71
3
 72
8
 73
4
 74
0
 40
0
 40
0
 40
0
 40
0
 40
1
 40
1
 40
1
 40
1
 10
144.598494
 20
659.299998
 30
0.0
 10
144.118871
 20
659.577023
 30
0.0
 10
143.527864
 20
659.577023
 30
0.0
 10
143.048241
 20
659.299998
 30
0.0
  0
SPLINE
  5
108
100
AcDbEntity
  8
0
 62
5
100
AcDbSpline
 70
8
 71
3
 72
8
 73
4
 74
0
 40
0
 40
0
 40
0
 40
0
 40
1
 40
1
 40
1
 40
1
 10
143.048241
 20
659.299998
 30
0.0
 10
142.568618
 20
659.022972
 30
0.0
 10
142.273299
 20
658.511040
 30
0.0
 10
142.273597
 20
657.957161
 30
0.0
  0
SPLINE
  5
109
100
AcDbEntity
  8
0
 62
5
100
AcDbSpline
 70
8
 71
3
 72
8
 73
4
 74
0
 40
0
 40
0
 40
0
 40
0
 40
1
 40
1
 40
1
 40
1
 10
142.273597
 20
657.957161
 30
0.0
 10
142.273299
 20
657.403283
 30
0.0
 10
142.568618
 20
656.891350
 30
0.0
 10
143.048241
 20
656.614325
 30
0.0
  0
SPLINE
  5
10a
100
AcDbEntity
  8
0
 62
5
100
AcDbSpline
 70
8
 71
3
 72
8
 73
4
 74
0
 40
0
 40
0
 40
0
 40
0
 40
1
 40
1
 40
1
 40
1
 10
143.048241
 20
656.614325
 30
0.0
 10
143.527864
 20
656.337300
 30
0.0
 10
144.118871
 20
656.337300
 30
0.0
 10
144.598494
 20
656.614325
 30
0.0
  0
SPLINE
  5
10b
100
AcDbEntity
  8
0
 62
5
100
AcDbSpline
 70
8
 71
3
 72
8
 73
4
 74
0
 40
0
 40
0
 40
0
 40
0
 40
1
 40
1
 40
1
 40
1
 10
144.598494
 20
656.614325
 30
0.0
 10
145.078117
 20
656.891350
 30
0.0
 10
145.373436
 20
657.403283
 30
0.0
 10
145.373137
 20
657.957161
 30
0.0
  0
LWPOLYLINE
  5
10c
100
AcDbEntity
  8
0
 62
5
100
AcDbPolyline
 90
1
 70
1
 10
95.780497
 20
657.957161
 30
0.0
  0
SPLINE
  5
10d
100
AcDbEntity
  8
0
 62
5
100
AcDbSpline
 70
8
 71
3
 72
8
 73
4
 74
0
 40
0
 40
0
 40
0
 40
0
 40
1
 40
1
 40
1
 40
1
 10
120.576810
 20
615.008674
 30
0.0
 10
120.577108
 20
615.562552
 30
0.0
 10
120.281789
 20
616.074485
 30
0.0
 10
119.802166
 20
616.351510
 30
0.0
  0
SPLINE
  5
10e
100
AcDbEntity
  8
0
 62
5
100
AcDbSpline
 70
8
 71
3
 72
8
 73
4
 74
0
 40
0
 40
0
 40
0
 40
0
 40
1
 40
1
 40
1
 40
1
 10
119.802166
 20
616.351510
 30
0.0
 10
119.322543
 20
616.628535
 30
0.0
 10
118.731537
 20
616.628535
 30
0.0
 10
118.251914
 20
616.351510
 30
0.0
  0
SPLINE
  5
10f
100
AcDbEntity
  8
0
 62
5
100
AcDbSpline
 70
8
 71
3
 72
8
 73
4
 74
0
 40
0
 40
0
 40
0
 40
0
 40
1
 40
1
 40
1
 40
1
 10
118.251914
 20
616.351510
 30
0.0
 10
117.772291
 20
616.074485
 30
0.0
 10
117.476972
 20
615.562552
 30
0.0
 10
117.477270
 20
615.008674
 30
0.0
  0
SPLINE
  5
110
100
AcDbEntity
  8
0
 62
5
100
AcDbSpline
 70
8
 71
3
 72
8
 73
4
 74
0
 40
0
 40
0
 40
0
 40
0
 40
1
 40
1
 40
1
 40
1
 10
117.477270
 20
615.008674
 30
0.0
 10
117.476972
 20
614.454795
 30
0.0
 10
117.772291
 20
613.942863
 30
0.0
 10
118.251914
 20
613.665837
 30
0.0
  0
SPLINE
  5
111
100
AcDbEntity
  8
0
 62
5
100
AcDbSpline
 70
8
 71
3
 72
8
 73
4
 74
0
 40
0
 40
0
 40
0
 40
0
 40
1
 40
1
 40
1
 40
1
 10
118.251914
 20
613.665837
 30
0.0
 10
118.731537
 20
613.388812
 30
0.0
 10
119.322543
 20
613.388812
 30
0.0
 10
119.802166
 20
613.665837
 30
0.0
  0
SPLINE
  5
112
100
AcDbEntity
  8
0
 62
5
100
AcDbSpline
 70
8
 71
3
 72
8
 73
4
 74
0
 40
0
 40
0
 40
0
 40
0
 40
1
 40
1
 40
1
 40
1
 10
119.802166
 20
613.665837
 30
0.0
 10
120.281789
 20
613.942863
 30
0.0
 10
120.577108
 20
614.454795
 30
0.0
 10
120.576810
 20
615.008674
 30
0.0
  0
LWPOLYLINE
  5
113
100
AcDbEntity
  8
0
 62
5
100
AcDbPolyline
 90
1
 70
1
 10
145.373137
 20
657.957161
 30
0.0
  0
SPLINE
  5
114
100
AcDbEntity
  8
0
 62
5
100
AcDbSpline
 70
8
 71
3
 72
8
 73
4
 74
0
 40
0
 40
0
 40
0
 40
0
 40
1
 40
1
 40
1
 40
1
 10
55.486470
 20
709.853246
 30
0.0
 10
55.486470
 20
710.406926
 30
0.0
 10
55.191085
 20
710.918547
 30
0.0
 10
54.711585
 20
711.195387
 30
0.0
  0
SPLINE
  5
115
100
AcDbEntity
  8
0
 62
5
100
AcDbSpline
 70
8
 71
3
 72
8
 73
4
 74
0
 40
0
 40
0
 40
0
 40
0
 40
1
 40
1
 40
1
 40
1
 10
54.711585
 20
711.195387
 30
0.0
 10
54.232084
 20
711.472227
 30
0.0
 10
53.641315
 20
711.472227
 30
0.0
 10
53.161814
 20
711.195387
 30
0.0
  0
SPLINE
  5
116
100
AcDbEntity
  8
0
 62
5
100
AcDbSpline
 70
8
 71
3
 72
8
 73
4
 74
0
 40
0
 40
0
 40
0
 40
0
 40
1
 40
1
 40
1
 40
1
 10
53.161814
 20
711.195387
 30
0.0
 10
52.682314
 20
710.918547
 30
0.0
 10
52.386929
 20
710.406926
 30
0.0
 10
52.386929
 20
709.853246
 30
0.0
  0
SPLINE
  5
117
100
AcDbEntity
  8
0
 62
5
100
AcDbSpline
 70
8
 71
3
 72
8
 73
4
 74
0
 40
0
 40
0
 40
0
 40
0
 40
1
 40
1
 40
1
 40
1
 10
52.386929
 20
709.853246
 30
0.0
 10
52.386929
 20
709.299567
 30
0.0
 10
52.682314
 20
708.787946
 30
0.0
 10
53.161814
 20
708.511106
 30
0.0
  0
SPLINE
  5
118
100
AcDbEntity
  8
0
 62
5
100
AcDbSpline
 70
8
 71
3
 72
8
 73
4
 74
0
 40
0
 40
0
 40
0
 40
0
 40
1
 40
1
 40
1
 40
1
 10
53.161814
 20
708.511106
 30
0.0
 10
53.641315
 20
708.234266
 30
0.0
 10
54.232084
 20
708.234266
 30
0.0
 10
54.711585
 20
708.511106
 30
0.0
  0
SPLINE
  5
119
100
AcDbEntity
  8
0
 62
5
100
AcDbSpline
 70
8
 71
3
 72
8
 73
4
 74
0
 40
0
 40
0
 40
0
 40
0
 40
1
 40
1
 40
1
 40
1
 10
54.711585
 20
708.511106
 30
0.0
 10
55.191085
 20
708.787946
 30
0.0
 10
55.486470
 20
709.299567
 30
0.0
 10
55.486470
 20
709.853246
 30
0.0
  0
LWPOLYLINE
  5
11a
100
AcDbEntity
  8
0
 62
5
100
AcDbPolyline
 90
1
 70
1
 10
120.576810
 20
615.008674
 30
0.0
  0
SPLINE
  5
11b
100
AcDbEntity
  8
0
 62
5
100
AcDbSpline
 70
8
 71
3
 72
8
 73
4
 74
0
 40
0
 40
0
 40
0
 40
0
 40
1
 40
1
 40
1
 40
1
 10
80.282790
 20
666.904759
 30
0.0
 10
80.283088
 20
667.458637
 30
0.0
 10
79.987769
 20
667.970570
 30
0.0
 10
79.508146
 20
668.247595
 30
0.0
  0
SPLINE
  5
11c
100
AcDbEntity
  8
0
 62
5
100
AcDbSpline
 70
8
 71
3
 72
8
 73
4
 74
0
 40
0
 40
0
 40
0
 40
0
 40
1
 40
1
 40
1
 40
1
 10
79.508146
 20
668.247595
 30
0.0
 10
79.028523
 20
668.524620
 30
0.0
 10
78.437517
 20
668.524620
 30
0.0
 10
77.957894
 20
668.247595
 30
0.0
  0
SPLINE
  5
11d
100
AcDbEntity
  8
0
 62
5
100
AcDbSpline
 70
8
 71
3
 72
8
 73
4
 74
0
 40
0
 40
0
 40
0
 40
0
 40
1
 40
1
 40
1
 40
1
 10
77.957894
 20
668.247595
 30
0.0
 10
77.478271
 20
667.970570
 30
0.0
 10
77.182952
 20
667.458637
 30
0.0
 10
77.183250
 20
666.904759
 30
0.0
  0
SPLINE
  5
11e
100
AcDbEntity
  8
0
 62
5
100
AcDbSpline
 70
8
 71
3
 72
8
 73
4
 74
0
 40
0
 40
0
 40
0
 40
0
 40
1
 40
1
 40
1
 40
1
 10
77.183250
 20
666.904759
 30
0.0
 10
77.182952
 20
666.350880
 30
0.0
 10
77.478271
 20
665.838948
 30
0.0
 10
77.957894
 20
665.561922
 30
0.0
  0
SPLINE
  5
11f
100
AcDbEntity
  8
0
 62
5
100
AcDbSpline
 70
8
 71
3
 72
8
 73
4
 74
0
 40
0
 40
0
 40
0
 40
0
 40
1
 40
1
 40
1
 40
1
 10
77.957894
 20
665.561922
 30
0.0
 10
78.437517
 20
665.284897
 30
0.0
 10
79.028523
 20
665.284897
 30
0.0
 10
79.508146
 20
665.561922
 30
0.0
  0
SPLINE
  5
120
100
AcDbEntity
  8
0
 62
5
100
AcDbSpline
 70
8
 71
3
 72
8
 73
4
 74
0
 40
0
 40
0
 40
0
 40
0
 40
1
 40
1
 40
1
 40
1
 10
79.508146
 20
665.561922
 30
0.0
 10
79.987769
 20
665.838948
 30
0.0
 10
80.283088
 20
666.350880
 30
0.0
 10
80.282790
 20
666.904759
 30
0.0
  0
LWPOLYLINE
  5
121
100
AcDbEntity
  8
0
 62
5
100
AcDbPolyline
 90
1
 70
1
 10
55.486470
 20
709.853246
 30
0.0
  0
SPLINE
  5
122
100
AcDbEntity
  8
0
 62
5
100
AcDbSpline
 70
8
 71
3
 72
8
 73
4
 74
0
 40
0
 40
0
 40
0
 40
0
 40
1
 40
1
 40
1
 40
1
 10
30.690148
 20
666.904759
 30
0.0
 10
30.690447
 20
667.458637
 30
0.0
 10
30.395128
 20
667.970570
 30
0.0
 10
29.915505
 20
668.247595
 30
0.0
  0
SPLINE
  5
123
100
AcDbEntity
  8
0
 62
5
100
AcDbSpline
 70
8
 71
3
 72
8
 73
4
 74
0
 40
0
 40
0
 40
0
 40
0
 40
1
 40
1
 40
1
 40
1
 10
29.915505
 20
668.247595
 30
0.0
 10
29.435882
 20
668.524620
 30
0.0
 10
28.844875
 20
668.524620
 30
0.0
 10
28.365252
 20
668.247595
 30
0.0
  0
SPLINE
  5
124
100
AcDbEntity
  8
0
 62
5
100
AcDbSpline
 70
8
 71
3
 72
8
 73
4
 74
0
 40
0
 40
0
 40
0
 40
0
 40
1
 40
1
 40
1
 40
1
 10
28.365252
 20
668.247595
 30
0.0
 10
27.885629
 20
667.970570
 30
0.0
 10
27.590310
 20
667.458637
 30
0.0
 10
27.590609
 20
666.904759
 30
0.0
  0
SPLINE
  5
125
100
AcDbEntity
  8
0
 62
5
100
AcDbSpline
 70
8
 71
3
 72
8
 73
4
 74
0
 40
0
 40
0
 40
0
 40
0
 40
1
 40
1
 40
1
 40
1
 10
27.590609
 20
666.904759
 30
0.0
 10
27.590310
 20
666.350880
 30
0.0
 10
27.885629
 20
665.838948
 30
0.0
 10
28.365252
 20
665.561922
 30
0.0
  0
SPLINE
  5
126
100
AcDbEntity
  8
0
 62
5
100
AcDbSpline
 70
8
 71
3
 72
8
 73
4
 74
0
 40
0
 40
0
 40
0
 40
0
 40
1
 40
1
 40
1
 40
1
 10
28.365252
 20
665.561922
 30
0.0
 10
28.844875
 20
665.284897
 30
0.0
 10
29.435882
 20
665.284897
 30
0.0
 10
29.915505
 20
665.561922
 30
0.0
  0
SPLINE
  5
127
100
AcDbEntity
  8
0
 62
5
100
AcDbSpline
 70
8
 71
3
 72
8
 73
4
 74
0
 40
0
 40
0
 40
0
 40
0
 40
1
 40
1
 40
1
 40
1
 10
29.915505
 20
665.561922
 30
0.0
 10
30.395128
 20
665.838948
 30
0.0
 10
30.690447
 20
666.350880
 30
0.0
 10
30.690148
 20
666.904759
 30
0.0
  0
LWPOLYLINE
  5
128
100
AcDbEntity
  8
0
 62
5
100
AcDbPolyline
 90
1
 70
1
 10
80.282790
 20
666.904759
 30
0.0
  0
SPLINE
  5
129
100
AcDbEntity
  8
0
 62
5
100
AcDbSpline
 70
8
 71
3
 72
8
 73
4
 74
0
 40
0
 40
0
 40
0
 40
0
 40
1
 40
1
 40
1
 40
1
 10
80.282790
 20
770.696941
 30
0.0
 10
80.283088
 20
771.250819
 30
0.0
 10
79.987769
 20
771.762752
 30
0.0
 10
79.508146
 20
772.039777
 30
0.0
  0
SPLINE
  5
12a
100
AcDbEntity
  8
0
 62
5
100
AcDbSpline
 70
8
 71
3
 72
8
 73
4
 74
0
 40
0
 40
0
 40
0
 40
0
 40
1
 40
1
 40
1
 40
1
 10
79.508146
 20
772.039777
 30
0.0
 10
79.028523
 20
772.316802
 30
0.0
 10
78.437517
 20
772.316802
 30
0.0
 10
77.957894
 20
772.039777
 30
0.0
  0
SPLINE
  5
12b
100
AcDbEntity
  8
0
 62
5
100
AcDbSpline
 70
8
 71
3
 72
8
 73
4
 74
0
 40
0
 40
0
 40
0
 40
0
 40
1
 40
1
 40
1
 40
1
 10
77.957894
 20
772.039777
 30
0.0
 10
77.478271
 20
771.762752
 30
0.0
 10
77.182952
 20
771.250819
 30
0.0
 10
77.183250
 20
770.696941
 30
0.0
  0
SPLINE
  5
12c
100
AcDbEntity
  8
0
 62
5
100
AcDbSpline
 70
8
 71
3
 72
8
 73
4
 74
0
 40
0
 40
0
 40
0
 40
0
 40
1
 40
1
 40
1
 40
1
 10
77.183250
 20
770.696941
 30
0.0
 10
77.182952
 20
770.143062
 30
0.0
 10
77.478271
 20
769.631130
 30
0.0
 10
77.957894
 20
769.354104
 30
0.0
  0
SPLINE
  5
12d
100
AcDbEntity
  8
0
 62
5
100
AcDbSpline
 70
8
 71
3
 72
8
 73
4
 74
0
 40
0
 40
0
 40
0
 40
0
 40
1
 40
1
 40
1
 40
1
 10
77.957894
 20
769.354104
 30
0.0
 10
78.437517
 20
769.077079
 30
0.0
 10
79.028523
 20
769.077079
 30
0.0
 10
79.508146
 20
769.354104
 30
0.0
  0
SPLINE
  5
12e
100
AcDbEntity
  8
0
 62
5
100
AcDbSpline
 70
8
 71
3
 72
8
 73
4
 74
0
 40
0
 40
0
 40
0
 40
0
 40
1
 40
1
 40
1
 40
1
 10
79.508146
 20
769.354104
 30
0.0
 10
79.987769
 20
769.631130
 30
0.0
 10
80.283088
 20
770.143062
 30
0.0
 10
80.282790
 20
770.696941
 30
0.0
  0
LWPOLYLINE
  5
12f
100
AcDbEntity
  8
0
 62
5
100
AcDbPolyline
 90
1
 70
1
 10
30.690148
 20
666.904759
 30
0.0
  0
SPLINE
  5
130
100
AcDbEntity
  8
0
 62
5
100
AcDbSpline
 70
8
 71
3
 72
8
 73
4
 74
0
 40
0
 40
0
 40
0
 40
0
 40
1
 40
1
 40
1
 40
1
 10
55.486470
 20
727.748449
 30
0.0
 10
55.486470
 20
728.302128
 30
0.0
 10
55.191085
 20
728.813749
 30
0.0
 10
54.711585
 20
729.090589
 30
0.0
  0
SPLINE
  5
131
100
AcDbEntity
  8
0
 62
5
100
AcDbSpline
 70
8
 71
3
 72
8
 73
4
 74
0
 40
0
 40
0
 40
0
 40
0
 40
1
 40
1
 40
1
 40
1
 10
54.711585
 20
729.090589
 30
0.0
 10
54.232084
 20
729.367429
 30
0.0
 10
53.641315
 20
729.367429
 30
0.0
 10
53.161814
 20
729.090589
 30
0.0
  0
SPLINE
  5
132
100
AcDbEntity
  8
0
 62
5
100
AcDbSpline
 70
8
 71
3
 72
8
 73
4
 74
0
 40
0
 40
0
 40
0
 40
0
 40
1
 40
1
 40
1
 40
1
 10
53.161814
 20
729.090589
 30
0.0
 10
52.682314
 20
728.813749
 30
0.0
 10
52.386929
 20
728.302128
 30
0.0
 10
52.386929
 20
727.748449
 30
0.0
  0
SPLINE
  5
133
100
AcDbEntity
  8
0
 62
5
100
AcDbSpline
 70
8
 71
3
 72
8
 73
4
 74
0
 40
0
 40
0
 40
0
 40
0
 40
1
 40
1
 40
1
 40
1
 10
52.386929
 20
727.748449
 30
0.0
 10
52.386929
 20
727.194769
 30
0.0
 10
52.682314
 20
726.683148
 30
0.0
 10
53.161814
 20
726.406308
 30
0.0
  0
SPLINE
  5
134
100
AcDbEntity
  8
0
 62
5
100
AcDbSpline
 70
8
 71
3
 72
8
 73
4
 74
0
 40
0
 40
0
 40
0
 40
0
 40
1
 40
1
 40
1
 40
1
 10
53.161814
 20
726.406308
 30
0.0
 10
53.641315
 20
726.129468
 30
0.0
 10
54.232084
 20
726.129468
 30
0.0
 10
54.711585
 20
726.406308
 30
0.0
  0
SPLINE
  5
135
100
AcDbEntity
  8
0
 62
5
100
AcDbSpline
 70
8
 71
3
 72
8
 73
4
 74
0
 40
0
 40
0
 40
0
 40
0
 40
1
 40
1
 40
1
 40
1
 10
54.711585
 20
726.406308
 30
0.0
 10
55.191085
 20
726.683148
 30
0.0
 10
55.486470
 20
727.194769
 30
0.0
 10
55.486470
 20
727.748449
 30
0.0
  0
LWPOLYLINE
  5
136
100
AcDbEntity
  8
0
 62
5
100
AcDbPolyline
 90
1
 70
1
 10
80.282790
 20
770.696941
 30
0.0
  0
SPLINE
  5
137
100
AcDbEntity
  8
0
 62
5
100
AcDbSpline
 70
8
 71
3
 72
8
 73
4
 74
0
 40
0
 40
0
 40
0
 40
0
 40
1
 40
1
 40
1
 40
1
 10
30.690148
 20
770.696941
 30
0.0
 10
30.690447
 20
771.250819
 30
0.0
 10
30.395128
 20
771.762752
 30
0.0
 10
29.915505
 20
772.039777
 30
0.0
  0
SPLINE
  5
138
100
AcDbEntity
  8
0
 62
5
100
AcDbSpline
 70
8
 71
3
 72
8
 73
4
 74
0
 40
0
 40
0
 40
0
 40
0
 40
1
 40
1
 40
1
 40
1
 10
29.915505
 20
772.039777
 30
0.0
 10
29.435882
 20
772.316802
 30
0.0
 10
28.844875
 20
772.316802
 30
0.0
 10
28.365252
 20
772.039777
 30
0.0
  0
SPLINE
  5
139
100
AcDbEntity
  8
0
 62
5
100
AcDbSpline
 70
8
 71
3
 72
8
 73
4
 74
0
 40
0
 40
0
 40
0
 40
0
 40
1
 40
1
 40
1
 40
1
 10
28.365252
 20
772.039777
 30
0.0
 10
27.885629
 20
771.762752
 30
0.0
 10
27.590310
 20
771.250819
 30
0.0
 10
27.590609
 20
770.696941
 30
0.0
  0
SPLINE
  5
13a
100
AcDbEntity
  8
0
 62
5
100
AcDbSpline
 70
8
 71
3
 72
8
 73
4
 74
0
 40
0
 40
0
 40
0
 40
0
 40
1
 40
1
 40
1
 40
1
 10
27.590609
 20
770.696941
 30
0.0
 10
27.590310
 20
770.143062
 30
0.0
 10
27.885629
 20
769.631130
 30
0.0
 10
28.365252
 20
769.354104
 30
0.0
  0
SPLINE
  5
13b
100
AcDbEntity
  8
0
 62
5
100
AcDbSpline
 70
8
 71
3
 72
8
 73
4
 74
0
 40
0
 40
0
 40
0
 40
0
 40
1
 40
1
 40
1
 40
1
 10
28.365252
 20
769.354104
 30
0.0
 10
28.844875
 20
769.077079
 30
0.0
 10
29.435882
 20
769.077079
 30
0.0
 10
29.915505
 20
769.354104
 30
0.0
  0
SPLINE
  5
13c
100
AcDbEntity
  8
0
 62
5
100
AcDbSpline
 70
8
 71
3
 72
8
 73
4
 74
0
 40
0
 40
0
 40
0
 40
0
 40
1
 40
1
 40
1
 40
1
 10
29.915505
 20
769.354104
 30
0.0
 10
30.395128
 20
769.631130
 30
0.0
 10
30.690447
 20
770.143062
 30
0.0
 10
30.690148
 20
770.696941
 30
0.0
  0
LWPOLYLINE
  5
13d
100
AcDbEntity
  8
0
 62
5
100
AcDbPolyline
 90
1
 70
1
 10
55.486470
 20
727.748449
 30
0.0
  0
SPLINE
  5
13e
100
AcDbEntity
  8
0
 62
5
100
AcDbSpline
 70
8
 71
3
 72
8
 73
4
 74
0
 40
0
 40
0
 40
0
 40
0
 40
1
 40
1
 40
1
 40
1
 10
145.373137
 20
779.644544
 30
0.0
 10
145.373436
 20
780.198423
 30
0.0
 10
145.078117
 20
780.710355
 30
0.0
 10
144.598494
 20
780.987381
 30
0.0
  0
SPLINE
  5
13f
100
AcDbEntity
  8
0
 62
5
100
AcDbSpline
 70
8
 71
3
 72
8
 73
4
 74
0
 40
0
 40
0
 40
0
 40
0
 40
1
 40
1
 40
1
 40
1
 10
144.598494
 20
780.987381
 30
0.0
 10
144.118871
 20
781.264406
 30
0.0
 10
143.527864
 20
781.264406
 30
0.0
 10
143.048241
 20
780.987381
 30
0.0
  0
SPLINE
  5
140
100
AcDbEntity
  8
0
 62
5
100
AcDbSpline
 70
8
 71
3
 72
8
 73
4
 74
0
 40
0
 40
0
 40
0
 40
0
 40
1
 40
1
 40
1
 40
1
 10
143.048241
 20
780.987381
 30
0.0
 10
142.568618
 20
780.710355
 30
0.0
 10
142.273299
 20
780.198423
 30
0.0
 10
142.273597
 20
779.644544
 30
0.0
  0
SPLINE
  5
141
100
AcDbEntity
  8
0
 62
5
100
AcDbSpline
 70
8
 71
3
 72
8
 73
4
 74
0
 40
0
 40
0
 40
0
 40
0
 40
1
 40
1
 40
1
 40
1
 10
142.273597
 20
779.644544
 30
0.0
 10
142.273299
 20
779.090666
 30
0.0
 10
142.568618
 20
778.578733
 30
0.0
 10
143.048241
 20
778.301708
 30
0.0
  0
SPLINE
  5
142
100
AcDbEntity
  8
0
 62
5
100
AcDbSpline
 70
8
 71
3
 72
8
 73
4
 74
0
 40
0
 40
0
 40
0
 40
0
 40
1
 40
1
 40
1
 40
1
 10
143.048241
 20
778.301708
 30
0.0
 10
143.527864
 20
778.024683
 30
0.0
 10
144.118871
 20
778.024683
 30
0.0
 10
144.598494
 20
778.301708
 30
0.0
  0
SPLINE
  5
143
100
AcDbEntity
  8
0
 62
5
100
AcDbSpline
 70
8
 71
3
 72
8
 73
4
 74
0
 40
0
 40
0
 40
0
 40
0
 40
1
 40
1
 40
1
 40
1
 10
144.598494
 20
778.301708
 30
0.0
 10
145.078117
 20
778.578733
 30
0.0
 10
145.373436
 20
779.090666
 30
0.0
 10
145.373137
 20
779.644544
 30
0.0
  0
LWPOLYLINE
  5
144
100
AcDbEntity
  8
0
 62
5
100
AcDbPolyline
 90
1
 70
1
 10
30.690148
 20
770.696941
 30
0.0
  0
SPLINE
  5
145
100
AcDbEntity
  8
0
 62
5
100
AcDbSpline
 70
8
 71
3
 72
8
 73
4
 74
0
 40
0
 40
0
 40
0
 40
0
 40
1
 40
1
 40
1
 40
1
 10
95.780497
 20
779.644544
 30
0.0
 10
95.780497
 20
780.198225
 30
0.0
 10
95.485112
 20
780.709847
 30
0.0
 10
95.005611
 20
780.986688
 30
0.0
  0
SPLINE
  5
146
100
AcDbEntity
  8
0
 62
5
100
AcDbSpline
 70
8
 71
3
 72
8
 73
4
 74
0
 40
0
 40
0
 40
0
 40
0
 40
1
 40
1
 40
1
 40
1
 10
95.005611
 20
780.986688
 30
0.0
 10
94.526109
 20
781.263528
 30
0.0
 10
93.935339
 20
781.263528
 30
0.0
 10
93.455837
 20
780.986688
 30
0.0
  0
SPLINE
  5
147
100
AcDbEntity
  8
0
 62
5
100
AcDbSpline
 70
8
 71
3
 72
8
 73
4
 74
0
 40
0
 40
0
 40
0
 40
0
 40
1
 40
1
 40
1
 40
1
 10
93.455837
 20
780.986688
 30
0.0
 10
92.976335
 20
780.709847
 30
0.0
 10
92.680950
 20
780.198225
 30
0.0
 10
92.680950
 20
779.644544
 30
0.0
  0
SPLINE
  5
148
100
AcDbEntity
  8
0
 62
5
100
AcDbSpline
 70
8
 71
3
 72
8
 73
4
 74
0
 40
0
 40
0
 40
0
 40
0
 40
1
 40
1
 40
1
 40
1
 10
92.680950
 20
779.644544
 30
0.0
 10
92.680950
 20
779.090863
 30
0.0
 10
92.976335
 20
778.579241
 30
0.0
 10
93.455837
 20
778.302401
 30
0.0
  0
SPLINE
  5
149
100
AcDbEntity
  8
0
 62
5
100
AcDbSpline
 70
8
 71
3
 72
8
 73
4
 74
0
 40
0
 40
0
 40
0
 40
0
 40
1
 40
1
 40
1
 40
1
 10
93.455837
 20
778.302401
 30
0.0
 10
93.935339
 20
778.025560
 30
0.0
 10
94.526109
 20
778.025560
 30
0.0
 10
95.005611
 20
778.302401
 30
0.0
  0
SPLINE
  5
14a
100
AcDbEntity
  8
0
 62
5
100
AcDbSpline
 70
8
 71
3
 72
8
 73
4
 74
0
 40
0
 40
0
 40
0
 40
0
 40
1
 40
1
 40
1
 40
1
 10
95.005611
 20
778.302401
 30
0.0
 10
95.485112
 20
778.579241
 30
0.0
 10
95.780497
 20
779.090863
 30
0.0
 10
95.780497
 20
779.644544
 30
0.0
  0
LWPOLYLINE
  5
14b
100
AcDbEntity
  8
0
 62
5
100
AcDbPolyline
 90
1
 70
1
 10
145.373137
 20
779.644544
 30
0.0
  0
SPLINE
  5
14c
100
AcDbEntity
  8
0
 62
5
100
AcDbSpline
 70
8
 71
3
 72
8
 73
4
 74
0
 40
0
 40
0
 40
0
 40
0
 40
1
 40
1
 40
1
 40
1
 10
120.576810
 20
822.593030
 30
0.0
 10
120.577108
 20
823.146909
 30
0.0
 10
120.281789
 20
823.658841
 30
0.0
 10
119.802166
 20
823.935867
 30
0.0
  0
SPLINE
  5
14d
100
AcDbEntity
  8
0
 62
5
100
AcDbSpline
 70
8
 71
3
 72
8
 73
4
 74
0
 40
0
 40
0
 40
0
 40
0
 40
1
 40
1
 40
1
 40
1
 10
119.802166
 20
823.935867
 30
0.0
 10
119.322543
 20
824.212892
 30
0.0
 10
118.731537
 20
824.212892
 30
0.0
 10
118.251914
 20
823.935867
 30
0.0
  0
SPLINE
  5
14e
100
AcDbEntity
  8
0
 62
5
100
AcDbSpline
 70
8
 71
3
 72
8
 73
4
 74
0
 40
0
 40
0
 40
0
 40
0
 40
1
 40
1
 40
1
 40
1
 10
118.251914
 20
823.935867
 30
0.0
 10
117.772291
 20
823.658841
 30
0.0
 10
117.476972
 20
823.146909
 30
0.0
 10
117.477270
 20
822.593030
 30
0.0
  0
SPLINE
  5
14f
100
AcDbEntity
  8
0
 62
5
100
AcDbSpline
 70
8
 71
3
 72
8
 73
4
 74
0
 40
0
 40
0
 40
0
 40
0
 40
1
 40
1
 40
1
 40
1
 10
117.477270
 20
822.593030
 30
0.0
 10
117.476972
 20
822.039152
 30
0.0
 10
117.772291
 20
821.527219
 30
0.0
 10
118.251914
 20
821.250194
 30
0.0
  0
SPLINE
  5
150
100
AcDbEntity
  8
0
 62
5
100
AcDbSpline
 70
8
 71
3
 72
8
 73
4
 74
0
 40
0
 40
0
 40
0
 40
0
 40
1
 40
1
 40
1
 40
1
 10
118.251914
 20
821.250194
 30
0.0
 10
118.731537
 20
820.973169
 30
0.0
 10
119.322543
 20
820.973169
 30
0.0
 10
119.802166
 20
821.250194
 30
0.0
  0
SPLINE
  5
151
100
AcDbEntity
  8
0
 62
5
100
AcDbSpline
 70
8
 71
3
 72
8
 73
4
 74
0
 40
0
 40
0
 40
0
 40
0
 40
1
 40
1
 40
1
 40
1
 10
119.802166
 20
821.250194
 30
0.0
 10
120.281789
 20
821.527219
 30
0.0
 10
120.577108
 20
822.039152
 30
0.0
 10
120.576810
 20
822.593030
 30
0.0
  0
LWPOLYLINE
  5
152
100
AcDbEntity
  8
0
 62
5
100
AcDbPolyline
 90
1
 70
1
 10
95.780497
 20
779.644544
 30
0.0
  0
SPLINE
  5
153
100
AcDbEntity
  8
0
 62
5
100
AcDbSpline
 70
8
 71
3
 72
8
 73
4
 74
0
 40
0
 40
0
 40
0
 40
0
 40
1
 40
1
 40
1
 40
1
 10
185.667158
 20
727.748449
 30
0.0
 10
185.667456
 20
728.302327
 30
0.0
 10
185.372137
 20
728.814260
 30
0.0
 10
184.892514
 20
729.091285
 30
0.0
  0
SPLINE
  5
154
100
AcDbEntity
  8
0
 62
5
100
AcDbSpline
 70
8
 71
3
 72
8
 73
4
 74
0
 40
0
 40
0
 40
0
 40
0
 40
1
 40
1
 40
1
 40
1
 10
184.892514
 20
729.091285
 30
0.0
 10
184.412891
 20
729.368310
 30
0.0
 10
183.821884
 20
729.368310
 30
0.0
 10
183.342261
 20
729.091285
 30
0.0
  0
SPLINE
  5
155
100
AcDbEntity
  8
0
 62
5
100
AcDbSpline
 70
8
 71
3
 72
8
 73
4
 74
0
 40
0
 40
0
 40
0
 40
0
 40
1
 40
1
 40
1
 40
1
 10
183.342261
 20
729.091285
 30
0.0
 10
182.862638
 20
728.814260
 30
0.0
 10
182.567319
 20
728.302327
 30
0.0
 10
182.567617
 20
727.748449
 30
0.0
  0
SPLINE
  5
156
100
AcDbEntity
  8
0
 62
5
100
AcDbSpline
 70
8
 71
3
 72
8
 73
4
 74
0
 40
0
 40
0
 40
0
 40
0
 40
1
 40
1
 40
1
 40
1
 10
182.567617
 20
727.748449
 30
0.0
 10
182.567319
 20
727.194570
 30
0.0
 10
182.862638
 20
726.682638
 30
0.0
 10
183.342261
 20
726.405612
 30
0.0
  0
SPLINE
  5
157
100
AcDbEntity
  8
0
 62
5
100
AcDbSpline
 70
8
 71
3
 72
8
 73
4
 74
0
 40
0
 40
0
 40
0
 40
0
 40
1
 40
1
 40
1
 40
1
 10
183.342261
 20
726.405612
 30
0.0
 10
183.821884
 20
726.128587
 30
0.0
 10
184.412891
 20
726.128587
 30
0.0
 10
184.892514
 20
726.405612
 30
0.0
  0
SPLINE
  5
158
100
AcDbEntity
  8
0
 62
5
100
AcDbSpline
 70
8
 71
3
 72
8
 73
4
 74
0
 40
0
 40
0
 40
0
 40
0
 40
1
 40
1
 40
1
 40
1
 10
184.892514
 20
726.405612
 30
0.0
 10
185.372137
 20
726.682638
 30
0.0
 10
185.667456
 20
727.194570
 30
0.0
 10
185.667158
 20
727.748449
 30
0.0
  0
LWPOLYLINE
  5
159
100
AcDbEntity
  8
0
 62
5
100
AcDbPolyline
 90
1
 70
1
 10
120.576810
 20
822.593030
 30
0.0
  0
SPLINE
  5
15a
100
AcDbEntity
  8
0
 62
5
100
AcDbSpline
 70
8
 71
3
 72
8
 73
4
 74
0
 40
0
 40
0
 40
0
 40
0
 40
1
 40
1
 40
1
 40
1
 10
160.870837
 20
770.696941
 30
0.0
 10
160.871136
 20
771.250819
 30
0.0
 10
160.575817
 20
771.762752
 30
0.0
 10
160.096194
 20
772.039777
 30
0.0
  0
SPLINE
  5
15b
100
AcDbEntity
  8
0
 62
5
100
AcDbSpline
 70
8
 71
3
 72
8
 73
4
 74
0
 40
0
 40
0
 40
0
 40
0
 40
1
 40
1
 40
1
 40
1
 10
160.096194
 20
772.039777
 30
0.0
 10
159.616571
 20
772.316802
 30
0.0
 10
159.025564
 20
772.316802
 30
0.0
 10
158.545941
 20
772.039777
 30
0.0
  0
SPLINE
  5
15c
100
AcDbEntity
  8
0
 62
5
100
AcDbSpline
 70
8
 71
3
 72
8
 73
4
 74
0
 40
0
 40
0
 40
0
 40
0
 40
1
 40
1
 40
1
 40
1
 10
158.545941
 20
772.039777
 30
0.0
 10
158.066318
 20
771.762752
 30
0.0
 10
157.770999
 20
771.250819
 30
0.0
 10
157.771298
 20
770.696941
 30
0.0
  0
SPLINE
  5
15d
100
AcDbEntity
  8
0
 62
5
100
AcDbSpline
 70
8
 71
3
 72
8
 73
4
 74
0
 40
0
 40
0
 40
0
 40
0
 40
1
 40
1
 40
1
 40
1
 10
157.771298
 20
770.696941
 30
0.0
 10
157.770999
 20
770.143062
 30
0.0
 10
158.066318
 20
769.631130
 30
0.0
 10
158.545941
 20
769.354104
 30
0.0
  0
SPLINE
  5
15e
100
AcDbEntity
  8
0
 62
5
100
AcDbSpline
 70
8
 71
3
 72
8
 73
4
 74
0
 40
0
 40
0
 40
0
 40
0
 40
1
 40
1
 40
1
 40
1
 10
158.545941
 20
769.354104
 30
0.0
 10
159.025564
 20
769.077079
 30
0.0
 10
159.616571
 20
769.077079
 30
0.0
 10
160.096194
 20
769.354104
 30
0.0
  0
SPLINE
  5
15f
100
AcDbEntity
  8
0
 62
5
100
AcDbSpline
 70
8
 71
3
 72
8
 73
4
 74
0
 40
0
 40
0
 40
0
 40
0
 40
1
 40
1
 40
1
 40
1
 10
160.096194
 20
769.354104
 30
0.0
 10
160.575817
 20
769.631130
 30
0.0
 10
160.871136
 20
770.143062
 30
0.0
 10
160.870837
 20
770.696941
 30
0.0
  0
LWPOLYLINE
  5
160
100
AcDbEntity
  8
0
 62
5
100
AcDbPolyline
 90
1
 70
1
 10
185.667158
 20
727.748449
 30
0.0
  0
SPLINE
  5
161
100
AcDbEntity
  8
0
 62
5
100
AcDbSpline
 70
8
 71
3
 72
8
 73
4
 74
0
 40
0
 40
0
 40
0
 40
0
 40
1
 40
1
 40
1
 40
1
 10
210.463478
 20
770.696941
 30
0.0
 10
210.463776
 20
771.250819
 30
0.0
 10
210.168457
 20
771.762752
 30
0.0
 10
209.688834
 20
772.039777
 30
0.0
  0
SPLINE
  5
162
100
AcDbEntity
  8
0
 62
5
100
AcDbSpline
 70
8
 71
3
 72
8
 73
4
 74
0
 40
0
 40
0
 40
0
 40
0
 40
1
 40
1
 40
1
 40
1
 10
209.688834
 20
772.039777
 30
0.0
 10
209.209211
 20
772.316802
 30
0.0
 10
208.618204
 20
772.316802
 30
0.0
 10
208.138581
 20
772.039777
 30
0.0
  0
SPLINE
  5
163
100
AcDbEntity
  8
0
 62
5
100
AcDbSpline
 70
8
 71
3
 72
8
 73
4
 74
0
 40
0
 40
0
 40
0
 40
0
 40
1
 40
1
 40
1
 40
1
 10
208.138581
 20
772.039777
 30
0.0
 10
207.658958
 20
771.762752
 30
0.0
 10
207.363639
 20
771.250819
 30
0.0
 10
207.363938
 20
770.696941
 30
0.0
  0
SPLINE
  5
164
100
AcDbEntity
  8
0
 62
5
100
AcDbSpline
 70
8
 71
3
 72
8
 73
4
 74
0
 40
0
 40
0
 40
0
 40
0
 40
1
 40
1
 40
1
 40
1
 10
207.363938
 20
770.696941
 30
0.0
 10
207.363639
 20
770.143062
 30
0.0
 10
207.658958
 20
769.631130
 30
0.0
 10
208.138581
 20
769.354104
 30
0.0
  0
SPLINE
  5
165
100
AcDbEntity
  8
0
 62
5
100
AcDbSpline
 70
8
 71
3
 72
8
 73
4
 74
0
 40
0
 40
0
 40
0
 40
0
 40
1
 40
1
 40
1
 40
1
 10
208.138581
 20
769.354104
 30
0.0
 10
208.618204
 20
769.077079
 30
0.0
 10
209.209211
 20
769.077079
 30
0.0
 10
209.688834
 20
769.354104
 30
0.0
  0
SPLINE
  5
166
100
AcDbEntity
  8
0
 62
5
100
AcDbSpline
 70
8
 71
3
 72
8
 73
4
 74
0
 40
0
 40
0
 40
0
 40
0
 40
1
 40
1
 40
1
 40
1
 10
209.688834
 20
769.354104
 30
0.0
 10
210.168457
 20
769.631130
 30
0.0
 10
210.463776
 20
770.143062
 30
0.0
 10
210.463478
 20
770.696941
 30
0.0
  0
LWPOLYLINE
  5
167
100
AcDbEntity
  8
0
 62
5
100
AcDbPolyline
 90
1
 70
1
 10
160.870837
 20
770.696941
 30
0.0
  0
SPLINE
  5
168
100
AcDbEntity
  8
0
 62
5
100
AcDbSpline
 70
8
 71
3
 72
8
 73
4
 74
0
 40
0
 40
0
 40
0
 40
0
 40
1
 40
1
 40
1
 40
1
 10
160.870837
 20
666.904759
 30
0.0
 10
160.871136
 20
667.458637
 30
0.0
 10
160.575817
 20
667.970570
 30
0.0
 10
160.096194
 20
668.247595
 30
0.0
  0
SPLINE
  5
169
100
AcDbEntity
  8
0
 62
5
100
AcDbSpline
 70
8
 71
3
 72
8
 73
4
 74
0
 40
0
 40
0
 40
0
 40
0
 40
1
 40
1
 40
1
 40
1
 10
160.096194
 20
668.247595
 30
0.0
 10
159.616571
 20
668.524620
 30
0.0
 10
159.025564
 20
668.524620
 30
0.0
 10
158.545941
 20
668.247595
 30
0.0
  0
SPLINE
  5
16a
100
AcDbEntity
  8
0
 62
5
100
AcDbSpline
 70
8
 71
3
 72
8
 73
4
 74
0
 40
0
 40
0
 40
0
 40
0
 40
1
 40
1
 40
1
 40
1
 10
158.545941
 20
668.247595
 30
0.0
 10
158.066318
 20
667.970570
 30
0.0
 10
157.770999
 20
667.458637
 30
0.0
 10
157.771298
 20
666.904759
 30
0.0
  0
SPLINE
  5
16b
100
AcDbEntity
  8
0
 62
5
100
AcDbSpline
 70
8
 71
3
 72
8
 73
4
 74
0
 40
0
 40
0
 40
0
 40
0
 40
1
 40
1
 40
1
 40
1
 10
157.771298
 20
666.904759
 30
0.0
 10
157.770999
 20
666.350880
 30
0.0
 10
158.066318
 20
665.838948
 30
0.0
 10
158.545941
 20
665.561922
 30
0.0
  0
SPLINE
  5
16c
100
AcDbEntity
  8
0
 62
5
100
AcDbSpline
 70
8
 71
3
 72
8
 73
4
 74
0
 40
0
 40
0
 40
0
 40
0
 40
1
 40
1
 40
1
 40
1
 10
158.545941
 20
665.561922
 30
0.0
 10
159.025564
 20
665.284897
 30
0.0
 10
159.616571
 20
665.284897
 30
0.0
 10
160.096194
 20
665.561922
 30
0.0
  0
SPLINE
  5
16d
100
AcDbEntity
  8
0
 62
5
100
AcDbSpline
 70
8
 71
3
 72
8
 73
4
 74
0
 40
0
 40
0
 40
0
 40
0
 40
1
 40
1
 40
1
 40
1
 10
160.096194
 20
665.561922
 30
0.0
 10
160.575817
 20
665.838948
 30
0.0
 10
160.871136
 20
666.350880
 30
0.0
 10
160.870837
 20
666.904759
 30
0.0
  0
LWPOLYLINE
  5
16e
100
AcDbEntity
  8
0
 62
5
100
AcDbPolyline
 90
1
 70
1
 10
210.463478
 20
770.696941
 30
0.0
  0
SPLINE
  5
16f
100
AcDbEntity
  8
0
 62
5
100
AcDbSpline
 70
8
 71
3
 72
8
 73
4
 74
0
 40
0
 40
0
 40
0
 40
0
 40
1
 40
1
 40
1
 40
1
 10
185.667158
 20
709.853246
 30
0.0
 10
185.667456
 20
710.407125
 30
0.0
 10
185.372137
 20
710.919057
 30
0.0
 10
184.892514
 20
711.196083
 30
0.0
  0
SPLINE
  5
170
100
AcDbEntity
  8
0
 62
5
100
AcDbSpline
 70
8
 71
3
 72
8
 73
4
 74
0
 40
0
 40
0
 40
0
 40
0
 40
1
 40
1
 40
1
 40
1
 10
184.892514
 20
711.196083
 30
0.0
 10
184.412891
 20
711.473108
 30
0.0
 10
183.821884
 20
711.473108
 30
0.0
 10
183.342261
 20
711.196083
 30
0.0
  0
SPLINE
  5
171
100
AcDbEntity
  8
0
 62
5
100
AcDbSpline
 70
8
 71
3
 72
8
 73
4
 74
0
 40
0
 40
0
 40
0
 40
0
 40
1
 40
1
 40
1
 40
1
 10
183.342261
 20
711.196083
 30
0.0
 10
182.862638
 20
710.919057
 30
0.0
 10
182.567319
 20
710.407125
 30
0.0
 10
182.567617
 20
709.853246
 30
0.0
  0
SPLINE
  5
172
100
AcDbEntity
  8
0
 62
5
100
AcDbSpline
 70
8
 71
3
 72
8
 73
4
 74
0
 40
0
 40
0
 40
0
 40
0
 40
1
 40
1
 40
1
 40
1
 10
182.567617
 20
709.853246
 30
0.0
 10
182.567319
 20
709.299368
 30
0.0
 10
182.862638
 20
708.787435
 30
0.0
 10
183.342261
 20
708.510410
 30
0.0
  0
SPLINE
  5
173
100
AcDbEntity
  8
0
 62
5
100
AcDbSpline
 70
8
 71
3
 72
8
 73
4
 74
0
 40
0
 40
0
 40
0
 40
0
 40
1
 40
1
 40
1
 40
1
 10
183.342261
 20
708.510410
 30
0.0
 10
183.821884
 20
708.233385
 30
0.0
 10
184.412891
 20
708.233385
 30
0.0
 10
184.892514
 20
708.510410
 30
0.0
  0
SPLINE
  5
174
100
AcDbEntity
  8
0
 62
5
100
AcDbSpline
 70
8
 71
3
 72
8
 73
4
 74
0
 40
0
 40
0
 40
0
 40
0
 40
1
 40
1
 40
1
 40
1
 10
184.892514
 20
708.510410
 30
0.0
 10
185.372137
 20
708.787435
 30
0.0
 10
185.667456
 20
709.299368
 30
0.0
 10
185.667158
 20
709.853246
 30
0.0
  0
LWPOLYLINE
  5
175
100
AcDbEntity
  8
0
 62
5
100
AcDbPolyline
 90
1
 70
1
 10
160.870837
 20
666.904759
 30
0.0
  0
SPLINE
  5
176
100
AcDbEntity
  8
0
 62
5
100
AcDbSpline
 70
8
 71
3
 72
8
 73
4
 74
0
 40
0
 40
0
 40
0
 40
0
 40
1
 40
1
 40
1
 40
1
 10
210.463478
 20
666.904759
 30
0.0
 10
210.463776
 20
667.458637
 30
0.0
 10
210.168457
 20
667.970570
 30
0.0
 10
209.688834
 20
668.247595
 30
0.0
  0
SPLINE
  5
177
100
AcDbEntity
  8
0
 62
5
100
AcDbSpline
 70
8
 71
3
 72
8
 73
4
 74
0
 40
0
 40
0
 40
0
 40
0
 40
1
 40
1
 40
1
 40
1
 10
209.688834
 20
668.247595
 30
0.0
 10
209.209211
 20
668.524620
 30
0.0
 10
208.618204
 20
668.524620
 30
0.0
 10
208.138581
 20
668.247595
 30
0.0
  0
SPLINE
  5
178
100
AcDbEntity
  8
0
 62
5
100
AcDbSpline
 70
8
 71
3
 72
8
 73
4
 74
0
 40
0
 40
0
 40
0
 40
0
 40
1
 40
1
 40
1
 40
1
 10
208.138581
 20
668.247595
 30
0.0
 10
207.658958
 20
667.970570
 30
0.0
 10
207.363639
 20
667.458637
 30
0.0
 10
207.363938
 20
666.904759
 30
0.0
  0
SPLINE
  5
179
100
AcDbEntity
  8
0
 62
5
100
AcDbSpline
 70
8
 71
3
 72
8
 73
4
 74
0
 40
0
 40
0
 40
0
 40
0
 40
1
 40
1
 40
1
 40
1
 10
207.363938
 20
666.904759
 30
0.0
 10
207.363639
 20
666.350880
 30
0.0
 10
207.658958
 20
665.838948
 30
0.0
 10
208.138581
 20
665.561922
 30
0.0
  0
SPLINE
  5
17a
100
AcDbEntity
  8
0
 62
5
100
AcDbSpline
 70
8
 71
3
 72
8
 73
4
 74
0
 40
0
 40
0
 40
0
 40
0
 40
1
 40
1
 40
1
 40
1
 10
208.138581
 20
665.561922
 30
0.0
 10
208.618204
 20
665.284897
 30
0.0
 10
209.209211
 20
665.284897
 30
0.0
 10
209.688834
 20
665.561922
 30
0.0
  0
SPLINE
  5
17b
100
AcDbEntity
  8
0
 62
5
100
AcDbSpline
 70
8
 71
3
 72
8
 73
4
 74
0
 40
0
 40
0
 40
0
 40
0
 40
1
 40
1
 40
1
 40
1
 10
209.688834
 20
665.561922
 30
0.0
 10
210.168457
 20
665.838948
 30
0.0
 10
210.463776
 20
666.350880
 30
0.0
 10
210.463478
 20
666.904759
 30
0.0
  0
LWPOLYLINE
  5
17c
100
AcDbEntity
  8
0
 62
5
100
AcDbPolyline
 90
1
 70
1
 10
185.667158
 20
709.853246
 30
0.0
  0
SPLINE
  5
17d
100
AcDbEntity
  8
0
 62
5
100
AcDbSpline
 70
8
 71
3
 72
8
 73
4
 74
0
 40
0
 40
0
 40
0
 40
0
 40
1
 40
1
 40
1
 40
1
 10
95.780497
 20
704.484686
 30
0.0
 10
95.780497
 20
705.038367
 30
0.0
 10
95.485112
 20
705.549989
 30
0.0
 10
95.005611
 20
705.826830
 30
0.0
  0
SPLINE
  5
17e
100
AcDbEntity
  8
0
 62
5
100
AcDbSpline
 70
8
 71
3
 72
8
 73
4
 74
0
 40
0
 40
0
 40
0
 40
0
 40
1
 40
1
 40
1
 40
1
 10
95.005611
 20
705.826830
 30
0.0
 10
94.526109
 20
706.103670
 30
0.0
 10
93.935339
 20
706.103670
 30
0.0
 10
93.455837
 20
705.826830
 30
0.0
  0
SPLINE
  5
17f
100
AcDbEntity
  8
0
 62
5
100
AcDbSpline
 70
8
 71
3
 72
8
 73
4
 74
0
 40
0
 40
0
 40
0
 40
0
 40
1
 40
1
 40
1
 40
1
 10
93.455837
 20
705.826830
 30
0.0
 10
92.976335
 20
705.549989
 30
0.0
 10
92.680950
 20
705.038367
 30
0.0
 10
92.680950
 20
704.484686
 30
0.0
  0
SPLINE
  5
180
100
AcDbEntity
  8
0
 62
5
100
AcDbSpline
 70
8
 71
3
 72
8
 73
4
 74
0
 40
0
 40
0
 40
0
 40
0
 40
1
 40
1
 40
1
 40
1
 10
92.680950
 20
704.484686
 30
0.0
 10
92.680950
 20
703.931005
 30
0.0
 10
92.976335
 20
703.419383
 30
0.0
 10
93.455837
 20
703.142543
 30
0.0
  0
SPLINE
  5
181
100
AcDbEntity
  8
0
 62
5
100
AcDbSpline
 70
8
 71
3
 72
8
 73
4
 74
0
 40
0
 40
0
 40
0
 40
0
 40
1
 40
1
 40
1
 40
1
 10
93.455837
 20
703.142543
 30
0.0
 10
93.935339
 20
702.865702
 30
0.0
 10
94.526109
 20
702.865702
 30
0.0
 10
95.005611
 20
703.142543
 30
0.0
  0
SPLINE
  5
182
100
AcDbEntity
  8
0
 62
5
100
AcDbSpline
 70
8
 71
3
 72
8
 73
4
 74
0
 40
0
 40
0
 40
0
 40
0
 40
1
 40
1
 40
1
 40
1
 10
95.005611
 20
703.142543
 30
0.0
 10
95.485112
 20
703.419383
 30
0.0
 10
95.780497
 20
703.931005
 30
0.0
 10
95.780497
 20
704.484686
 30
0.0
  0
LWPOLYLINE
  5
183
100
AcDbEntity
  8
0
 62
5
100
AcDbPolyline
 90
1
 70
1
 10
210.463478
 20
666.904759
 30
0.0
  0
SPLINE
  5
184
100
AcDbEntity
  8
0
 62
5
100
AcDbSpline
 70
8
 71
3
 72
8
 73
4
 74
0
 40
0
 40
0
 40
0
 40
0
 40
1
 40
1
 40
1
 40
1
 10
120.576810
 20
747.433181
 30
0.0
 10
120.577108
 20
747.987060
 30
0.0
 10
120.281789
 20
748.498992
 30
0.0
 10
119.802166
 20
748.776018
 30
0.0
  0
SPLINE
  5
185
100
AcDbEntity
  8
0
 62
5
100
AcDbSpline
 70
8
 71
3
 72
8
 73
4
 74
0
 40
0
 40
0
 40
0
 40
0
 40
1
 40
1
 40
1
 40
1
 10
119.802166
 20
748.776018
 30
0.0
 10
119.322543
 20
749.053043
 30
0.0
 10
118.731537
 20
749.053043
 30
0.0
 10
118.251914
 20
748.776018
 30
0.0
  0
SPLINE
  5
186
100
AcDbEntity
  8
0
 62
5
100
AcDbSpline
 70
8
 71
3
 72
8
 73
4
 74
0
 40
0
 40
0
 40
0
 40
0
 40
1
 40
1
 40
1
 40
1
 10
118.251914
 20
748.776018
 30
0.0
 10
117.772291
 20
748.498992
 30
0.0
 10
117.476972
 20
747.987060
 30
0.0
 10
117.477270
 20
747.433181
 30
0.0
  0
SPLINE
  5
187
100
AcDbEntity
  8
0
 62
5
100
AcDbSpline
 70
8
 71
3
 72
8
 73
4
 74
0
 40
0
 40
0
 40
0
 40
0
 40
1
 40
1
 40
1
 40
1
 10
117.477270
 20
747.433181
 30
0.0
 10
117.476972
 20
746.879303
 30
0.0
 10
117.772291
 20
746.367370
 30
0.0
 10
118.251914
 20
746.090345
 30
0.0
  0
SPLINE
  5
188
100
AcDbEntity
  8
0
 62
5
100
AcDbSpline
 70
8
 71
3
 72
8
 73
4
 74
0
 40
0
 40
0
 40
0
 40
0
 40
1
 40
1
 40
1
 40
1
 10
118.251914
 20
746.090345
 30
0.0
 10
118.731537
 20
745.813320
 30
0.0
 10
119.322543
 20
745.813320
 30
0.0
 10
119.802166
 20
746.090345
 30
0.0
  0
SPLINE
  5
189
100
AcDbEntity
  8
0
 62
5
100
AcDbSpline
 70
8
 71
3
 72
8
 73
4
 74
0
 40
0
 40
0
 40
0
 40
0
 40
1
 40
1
 40
1
 40
1
 10
119.802166
 20
746.090345
 30
0.0
 10
120.281789
 20
746.367370
 30
0.0
 10
120.577108
 20
746.879303
 30
0.0
 10
120.576810
 20
747.433181
 30
0.0
  0
LWPOLYLINE
  5
18a
100
AcDbEntity
  8
0
 62
5
100
AcDbPolyline
 90
1
 70
1
 10
95.780497
 20
704.484686
 30
0.0
  0
SPLINE
  5
18b
100
AcDbEntity
  8
0
 62
5
100
AcDbSpline
 70
8
 71
3
 72
8
 73
4
 74
0
 40
0
 40
0
 40
0
 40
0
 40
1
 40
1
 40
1
 40
1
 10
145.373137
 20
704.484686
 30
0.0
 10
145.373436
 20
705.038565
 30
0.0
 10
145.078117
 20
705.550497
 30
0.0
 10
144.598494
 20
705.827523
 30
0.0
  0
SPLINE
  5
18c
100
AcDbEntity
  8
0
 62
5
100
AcDbSpline
 70
8
 71
3
 72
8
 73
4
 74
0
 40
0
 40
0
 40
0
 40
0
 40
1
 40
1
 40
1
 40
1
 10
144.598494
 20
705.827523
 30
0.0
 10
144.118871
 20
706.104548
 30
0.0
 10
143.527864
 20
706.104548
 30
0.0
 10
143.048241
 20
705.827523
 30
0.0
  0
SPLINE
  5
18d
100
AcDbEntity
  8
0
 62
5
100
AcDbSpline
 70
8
 71
3
 72
8
 73
4
 74
0
 40
0
 40
0
 40
0
 40
0
 40
1
 40
1
 40
1
 40
1
 10
143.048241
 20
705.827523
 30
0.0
 10
142.568618
 20
705.550497
 30
0.0
 10
142.273299
 20
705.038565
 30
0.0
 10
142.273597
 20
704.484686
 30
0.0
  0
SPLINE
  5
18e
100
AcDbEntity
  8
0
 62
5
100
AcDbSpline
 70
8
 71
3
 72
8
 73
4
 74
0
 40
0
 40
0
 40
0
 40
0
 40
1
 40
1
 40
1
 40
1
 10
142.273597
 20
704.484686
 30
0.0
 10
142.273299
 20
703.930808
 30
0.0
 10
142.568618
 20
703.418875
 30
0.0
 10
143.048241
 20
703.141850
 30
0.0
  0
SPLINE
  5
18f
100
AcDbEntity
  8
0
 62
5
100
AcDbSpline
 70
8
 71
3
 72
8
 73
4
 74
0
 40
0
 40
0
 40
0
 40
0
 40
1
 40
1
 40
1
 40
1
 10
143.048241
 20
703.141850
 30
0.0
 10
143.527864
 20
702.864825
 30
0.0
 10
144.118871
 20
702.864825
 30
0.0
 10
144.598494
 20
703.141850
 30
0.0
  0
SPLINE
  5
190
100
AcDbEntity
  8
0
 62
5
100
AcDbSpline
 70
8
 71
3
 72
8
 73
4
 74
0
 40
0
 40
0
 40
0
 40
0
 40
1
 40
1
 40
1
 40
1
 10
144.598494
 20
703.141850
 30
0.0
 10
145.078117
 20
703.418875
 30
0.0
 10
145.373436
 20
703.930808
 30
0.0
 10
145.373137
 20
704.484686
 30
0.0
  0
LWPOLYLINE
  5
191
100
AcDbEntity
  8
0
 62
5
100
AcDbPolyline
 90
1
 70
1
 10
120.576810
 20
747.433181
 30
0.0
  0
LWPOLYLINE
  5
192
100
AcDbEntity
  8
0
 62
5
100
AcDbPolyline
 90
1
 70
1
 10
145.373137
 20
704.484686
 30
0.0
  0
LWPOLYLINE
  5
193
100
AcDbEntity
  8
0
 62
7
100
AcDbPolyline
 90
2
 70
0
 10
160.455578
 20
653.243606
 30
0.0
 10
154.256490
 20
663.980726
 30
0.0
  0
LWPOLYLINE
  5
194
100
AcDbEntity
  8
0
 62
7
100
AcDbPolyline
 90
2
 70
0
 10
156.221520
 20
654.378124
 30
0.0
 10
160.455578
 20
653.243606
 30
0.0
  0
LWPOLYLINE
  5
195
100
AcDbEntity
  8
0
 62
7
100
AcDbPolyline
 90
4
 70
0
 10
156.221520
 20
632.903876
 30
0.0
 10
155.087018
 20
637.137926
 30
0.0
 10
148.887937
 20
626.400806
 30
0.0
 10
154.256490
 20
623.301266
 30
0.0
  0
LWPOLYLINE
  5
196
100
AcDbEntity
  8
0
 62
7
100
AcDbPolyline
 90
2
 70
0
 10
148.057410
 20
612.564139
 30
0.0
 10
154.256490
 20
623.301266
 30
0.0
  0
LWPOLYLINE
  5
197
100
AcDbEntity
  8
0
 62
7
100
AcDbPolyline
 90
2
 70
0
 10
146.922900
 20
616.798189
 30
0.0
 10
148.057410
 20
612.564139
 30
0.0
  0
LWPOLYLINE
  5
198
100
AcDbEntity
  8
0
 62
7
100
AcDbPolyline
 90
4
 70
0
 10
128.325668
 20
606.061054
 30
0.0
 10
131.425207
 20
609.160609
 30
0.0
 10
119.027048
 20
609.160609
 30
0.0
 10
119.027048
 20
602.961521
 30
0.0
  0
LWPOLYLINE
  5
199
100
AcDbEntity
  8
0
 62
7
100
AcDbPolyline
 90
2
 70
0
 10
106.628880
 20
602.961521
 30
0.0
 10
119.027048
 20
602.961521
 30
0.0
  0
LWPOLYLINE
  5
19a
100
AcDbEntity
  8
0
 62
7
100
AcDbPolyline
 90
2
 70
0
 10
109.728420
 20
606.061054
 30
0.0
 10
106.628880
 20
602.961521
 30
0.0
  0
LWPOLYLINE
  5
19b
100
AcDbEntity
  8
0
 62
7
100
AcDbPolyline
 90
4
 70
0
 10
91.131180
 20
616.798189
 30
0.0
 10
95.365230
 20
615.663679
 30
0.0
 10
89.166150
 20
626.400806
 30
0.0
 10
83.797590
 20
623.301266
 30
0.0
  0
LWPOLYLINE
  5
19c
100
AcDbEntity
  8
0
 62
7
100
AcDbPolyline
 90
2
 70
0
 10
77.598510
 20
634.038386
 30
0.0
 10
83.797590
 20
623.301266
 30
0.0
  0
LWPOLYLINE
  5
19d
100
AcDbEntity
  8
0
 62
7
100
AcDbPolyline
 90
2
 70
0
 10
81.832560
 20
632.903876
 30
0.0
 10
77.598510
 20
634.038386
 30
0.0
  0
LWPOLYLINE
  5
19e
100
AcDbEntity
  8
0
 62
7
100
AcDbPolyline
 90
3
 70
0
 10
81.832560
 20
654.378124
 30
0.0
 10
82.967070
 20
650.144066
 30
0.0
 10
89.166150
 20
660.881186
 30
0.0
  0
LWPOLYLINE
  5
19f
100
AcDbEntity
  8
0
 62
7
100
AcDbPolyline
 90
2
 70
0
 10
83.797590
 20
663.980726
 30
0.0
 10
89.166150
 20
660.881186
 30
0.0
  0
LWPOLYLINE
  5
1a0
100
AcDbEntity
  8
0
 62
7
100
AcDbPolyline
 90
2
 70
0
 10
89.996670
 20
674.717854
 30
0.0
 10
83.797590
 20
663.980726
 30
0.0
  0
LWPOLYLINE
  5
1a1
100
AcDbEntity
  8
0
 62
7
100
AcDbPolyline
 90
2
 70
0
 10
91.131180
 20
670.483804
 30
0.0
 10
89.996670
 20
674.717854
 30
0.0
  0
LWPOLYLINE
  5
1a2
100
AcDbEntity
  8
0
 62
7
100
AcDbPolyline
 90
3
 70
0
 10
109.728420
 20
681.220924
 30
0.0
 10
106.628880
 20
678.121384
 30
0.0
 10
119.027048
 20
678.121384
 30
0.0
  0
LWPOLYLINE
  5
1a3
100
AcDbEntity
  8
0
 62
7
100
AcDbPolyline
 90
2
 70
0
 10
119.027048
 20
684.320464
 30
0.0
 10
119.027048
 20
678.121384
 30
0.0
  0
LWPOLYLINE
  5
1a4
100
AcDbEntity
  8
0
 62
7
100
AcDbPolyline
 90
2
 70
0
 10
131.425207
 20
684.320464
 30
0.0
 10
119.027048
 20
684.320464
 30
0.0
  0
LWPOLYLINE
  5
1a5
100
AcDbEntity
  8
0
 62
7
100
AcDbPolyline
 90
2
 70
0
 10
128.325668
 20
681.220924
 30
0.0
 10
131.425207
 20
684.320464
 30
0.0
  0
LWPOLYLINE
  5
1a6
100
AcDbEntity
  8
0
 62
7
100
AcDbPolyline
 90
4
 70
0
 10
146.922900
 20
670.483804
 30
0.0
 10
142.688858
 20
671.618314
 30
0.0
 10
148.887938
 20
660.881186
 30
0.0
 10
154.256490
 20
663.980726
 30
0.0
  0
LWPOLYLINE
  5
1a7
100
AcDbEntity
  8
0
 62
7
100
AcDbPolyline
 90
2
 70
0
 10
156.221520
 20
632.903876
 30
0.0
 10
162.420600
 20
643.641004
 30
0.0
  0
LWPOLYLINE
  5
1a8
100
AcDbEntity
  8
0
 62
7
100
AcDbPolyline
 90
2
 70
0
 10
146.922900
 20
670.483804
 30
0.0
 10
140.723820
 20
681.220924
 30
0.0
  0
LWPOLYLINE
  5
1a9
100
AcDbEntity
  8
0
 62
7
100
AcDbPolyline
 90
2
 70
0
 10
97.330260
 20
681.220924
 30
0.0
 10
109.728420
 20
681.220924
 30
0.0
  0
LWPOLYLINE
  5
1aa
100
AcDbEntity
  8
0
 62
7
100
AcDbPolyline
 90
2
 70
0
 10
81.832560
 20
654.378124
 30
0.0
 10
75.633488
 20
643.641004
 30
0.0
  0
LWPOLYLINE
  5
1ab
100
AcDbEntity
  8
0
 62
7
100
AcDbPolyline
 90
2
 70
0
 10
91.131180
 20
616.798189
 30
0.0
 10
97.330260
 20
606.061054
 30
0.0
  0
LWPOLYLINE
  5
1ac
100
AcDbEntity
  8
0
 62
7
100
AcDbPolyline
 90
3
 70
0
 10
128.325668
 20
606.061054
 30
0.0
 10
140.723820
 20
606.061054
 30
0.0
 10
146.922900
 20
616.798189
 30
0.0
  0
LWPOLYLINE
  5
1ad
100
AcDbEntity
  8
0
 62
7
100
AcDbPolyline
 90
2
 70
0
 10
156.221520
 20
654.378124
 30
0.0
 10
162.420600
 20
643.641004
 30
0.0
  0
LWPOLYLINE
  5
1ae
100
AcDbEntity
  8
0
 62
7
100
AcDbPolyline
 90
2
 70
0
 10
140.723820
 20
681.220924
 30
0.0
 10
128.325668
 20
681.220924
 30
0.0
  0
LWPOLYLINE
  5
1af
100
AcDbEntity
  8
0
 62
7
100
AcDbPolyline
 90
2
 70
0
 10
91.131180
 20
670.483804
 30
0.0
 10
97.330260
 20
681.220924
 30
0.0
  0
LWPOLYLINE
  5
1b0
100
AcDbEntity
  8
0
 62
7
100
AcDbPolyline
 90
2
 70
0
 10
75.633488
 20
643.641004
 30
0.0
 10
81.832560
 20
632.903876
 30
0.0
  0
LWPOLYLINE
  5
1b1
100
AcDbEntity
  8
0
 62
7
100
AcDbPolyline
 90
2
 70
0
 10
97.330260
 20
606.061054
 30
0.0
 10
109.728420
 20
606.061054
 30
0.0
  0
LWPOLYLINE
  5
1b2
100
AcDbEntity
  8
0
 62
7
100
AcDbPolyline
 90
4
 70
0
 10
63.235322
 20
643.641004
 30
0.0
 10
66.334863
 20
646.740544
 30
0.0
 10
53.936699
 20
646.740544
 30
0.0
 10
53.936699
 20
640.541464
 30
0.0
  0
LWPOLYLINE
  5
1b3
100
AcDbEntity
  8
0
 62
7
100
AcDbPolyline
 90
2
 70
0
 10
41.538541
 20
640.541464
 30
0.0
 10
53.936699
 20
640.541464
 30
0.0
  0
LWPOLYLINE
  5
1b4
100
AcDbEntity
  8
0
 62
7
100
AcDbPolyline
 90
2
 70
0
 10
44.638081
 20
643.641004
 30
0.0
 10
41.538541
 20
640.541464
 30
0.0
  0
LWPOLYLINE
  5
1b5
100
AcDbEntity
  8
0
 62
7
100
AcDbPolyline
 90
4
 70
0
 10
26.040838
 20
654.378124
 30
0.0
 10
30.274889
 20
653.243606
 30
0.0
 10
24.075809
 20
663.980726
 30
0.0
 10
18.707249
 20
660.881186
 30
0.0
  0
LWPOLYLINE
  5
1b6
100
AcDbEntity
  8
0
 62
7
100
AcDbPolyline
 90
2
 70
0
 10
12.508169
 20
671.618314
 30
0.0
 10
18.707249
 20
660.881186
 30
0.0
  0
LWPOLYLINE
  5
1b7
100
AcDbEntity
  8
0
 62
7
100
AcDbPolyline
 90
2
 70
0
 10
16.742219
 20
670.483804
 30
0.0
 10
12.508169
 20
671.618314
 30
0.0
  0
LWPOLYLINE
  5
1b8
100
AcDbEntity
  8
0
 62
7
100
AcDbPolyline
 90
4
 70
0
 10
16.742219
 20
691.958044
 30
0.0
 10
17.876727
 20
687.724001
 30
0.0
 10
24.075809
 20
698.461121
 30
0.0
 10
18.707249
 20
701.560661
 30
0.0
  0
LWPOLYLINE
  5
1b9
100
AcDbEntity
  8
0
 62
7
100
AcDbPolyline
 90
2
 70
0
 10
24.906330
 20
712.297781
 30
0.0
 10
18.707249
 20
701.560661
 30
0.0
  0
LWPOLYLINE
  5
1ba
100
AcDbEntity
  8
0
 62
7
100
AcDbPolyline
 90
2
 70
0
 10
26.040838
 20
708.063724
 30
0.0
 10
24.906330
 20
712.297781
 30
0.0
  0
LWPOLYLINE
  5
1bb
100
AcDbEntity
  8
0
 62
7
100
AcDbPolyline
 90
3
 70
0
 10
44.638081
 20
718.800851
 30
0.0
 10
41.538541
 20
715.701311
 30
0.0
 10
53.936699
 20
715.701311
 30
0.0
  0
LWPOLYLINE
  5
1bc
100
AcDbEntity
  8
0
 62
7
100
AcDbPolyline
 90
2
 70
0
 10
53.936699
 20
721.900391
 30
0.0
 10
53.936699
 20
715.701311
 30
0.0
  0
LWPOLYLINE
  5
1bd
100
AcDbEntity
  8
0
 62
7
100
AcDbPolyline
 90
2
 70
0
 10
66.334863
 20
721.900391
 30
0.0
 10
53.936699
 20
721.900391
 30
0.0
  0
LWPOLYLINE
  5
1be
100
AcDbEntity
  8
0
 62
7
100
AcDbPolyline
 90
2
 70
0
 10
63.235322
 20
718.800851
 30
0.0
 10
66.334863
 20
721.900391
 30
0.0
  0
LWPOLYLINE
  5
1bf
100
AcDbEntity
  8
0
 62
7
100
AcDbPolyline
 90
3
 70
0
 10
81.832560
 20
708.063724
 30
0.0
 10
77.598510
 20
709.198241
 30
0.0
 10
83.797590
 20
698.461121
 30
0.0
  0
LWPOLYLINE
  5
1c0
100
AcDbEntity
  8
0
 62
7
100
AcDbPolyline
 90
2
 70
0
 10
89.166150
 20
701.560661
 30
0.0
 10
83.797590
 20
698.461121
 30
0.0
  0
LWPOLYLINE
  5
1c1
100
AcDbEntity
  8
0
 62
7
100
AcDbPolyline
 90
2
 70
0
 10
95.365230
 20
690.823541
 30
0.0
 10
89.166150
 20
701.560661
 30
0.0
  0
LWPOLYLINE
  5
1c2
100
AcDbEntity
  8
0
 62
7
100
AcDbPolyline
 90
2
 70
0
 10
91.131180
 20
691.958044
 30
0.0
 10
95.365230
 20
690.823541
 30
0.0
  0
LWPOLYLINE
  5
1c3
100
AcDbEntity
  8
0
 62
7
100
AcDbPolyline
 90
2
 70
0
 10
63.235322
 20
643.641004
 30
0.0
 10
75.633488
 20
643.641004
 30
0.0
  0
LWPOLYLINE
  5
1c4
100
AcDbEntity
  8
0
 62
7
100
AcDbPolyline
 90
2
 70
0
 10
81.832560
 20
708.063724
 30
0.0
 10
75.633488
 20
718.800851
 30
0.0
  0
LWPOLYLINE
  5
1c5
100
AcDbEntity
  8
0
 62
7
100
AcDbPolyline
 90
2
 70
0
 10
44.638081
 20
718.800851
 30
0.0
 10
32.239919
 20
718.800851
 30
0.0
  0
LWPOLYLINE
  5
1c6
100
AcDbEntity
  8
0
 62
7
100
AcDbPolyline
 90
2
 70
0
 10
16.742219
 20
691.958044
 30
0.0
 10
10.543139
 20
681.220924
 30
0.0
  0
LWPOLYLINE
  5
1c7
100
AcDbEntity
  8
0
 62
7
100
AcDbPolyline
 90
3
 70
0
 10
26.040838
 20
654.378124
 30
0.0
 10
32.239919
 20
643.641004
 30
0.0
 10
44.638081
 20
643.641004
 30
0.0
  0
LWPOLYLINE
  5
1c8
100
AcDbEntity
  8
0
 62
7
100
AcDbPolyline
 90
2
 70
0
 10
97.330260
 20
681.220924
 30
0.0
 10
91.131180
 20
691.958044
 30
0.0
  0
LWPOLYLINE
  5
1c9
100
AcDbEntity
  8
0
 62
7
100
AcDbPolyline
 90
2
 70
0
 10
63.235322
 20
718.800851
 30
0.0
 10
75.633488
 20
718.800851
 30
0.0
  0
LWPOLYLINE
  5
1ca
100
AcDbEntity
  8
0
 62
7
100
AcDbPolyline
 90
2
 70
0
 10
32.239919
 20
718.800851
 30
0.0
 10
26.040838
 20
708.063724
 30
0.0
  0
LWPOLYLINE
  5
1cb
100
AcDbEntity
  8
0
 62
7
100
AcDbPolyline
 90
2
 70
0
 10
10.543138
 20
681.220924
 30
0.0
 10
16.742219
 20
670.483804
 30
0.0
  0
LWPOLYLINE
  5
1cc
100
AcDbEntity
  8
0
 62
7
100
AcDbPolyline
 90
4
 70
0
 10
26.040838
 20
729.537971
 30
0.0
 10
30.274889
 20
728.403461
 30
0.0
 10
24.075809
 20
739.140589
 30
0.0
 10
18.707249
 20
736.041049
 30
0.0
  0
LWPOLYLINE
  5
1cd
100
AcDbEntity
  8
0
 62
7
100
AcDbPolyline
 90
2
 70
0
 10
12.508169
 20
746.778169
 30
0.0
 10
18.707249
 20
736.041049
 30
0.0
  0
LWPOLYLINE
  5
1ce
100
AcDbEntity
  8
0
 62
7
100
AcDbPolyline
 90
2
 70
0
 10
16.742219
 20
745.643659
 30
0.0
 10
12.508169
 20
746.778169
 30
0.0
  0
LWPOLYLINE
  5
1cf
100
AcDbEntity
  8
0
 62
7
100
AcDbPolyline
 90
4
 70
0
 10
16.742219
 20
767.117903
 30
0.0
 10
17.876727
 20
762.883849
 30
0.0
 10
24.075809
 20
773.620969
 30
0.0
 10
18.707249
 20
776.720509
 30
0.0
  0
LWPOLYLINE
  5
1d0
100
AcDbEntity
  8
0
 62
7
100
AcDbPolyline
 90
2
 70
0
 10
24.906330
 20
787.457636
 30
0.0
 10
18.707249
 20
776.720509
 30
0.0
  0
LWPOLYLINE
  5
1d1
100
AcDbEntity
  8
0
 62
7
100
AcDbPolyline
 90
2
 70
0
 10
26.040838
 20
783.223584
 30
0.0
 10
24.906330
 20
787.457636
 30
0.0
  0
LWPOLYLINE
  5
1d2
100
AcDbEntity
  8
0
 62
7
100
AcDbPolyline
 90
4
 70
0
 10
44.638081
 20
793.960703
 30
0.0
 10
41.538541
 20
790.861163
 30
0.0
 10
53.936699
 20
790.861163
 30
0.0
 10
53.936699
 20
797.060244
 30
0.0
  0
LWPOLYLINE
  5
1d3
100
AcDbEntity
  8
0
 62
7
100
AcDbPolyline
 90
2
 70
0
 10
66.334863
 20
797.060244
 30
0.0
 10
53.936699
 20
797.060244
 30
0.0
  0
LWPOLYLINE
  5
1d4
100
AcDbEntity
  8
0
 62
7
100
AcDbPolyline
 90
2
 70
0
 10
63.235322
 20
793.960703
 30
0.0
 10
66.334863
 20
797.060244
 30
0.0
  0
LWPOLYLINE
  5
1d5
100
AcDbEntity
  8
0
 62
7
100
AcDbPolyline
 90
4
 70
0
 10
81.832560
 20
783.223584
 30
0.0
 10
77.598510
 20
784.358096
 30
0.0
 10
83.797590
 20
773.620969
 30
0.0
 10
89.166150
 20
776.720509
 30
0.0
  0
LWPOLYLINE
  5
1d6
100
AcDbEntity
  8
0
 62
7
100
AcDbPolyline
 90
2
 70
0
 10
95.365230
 20
765.983389
 30
0.0
 10
89.166150
 20
776.720509
 30
0.0
  0
LWPOLYLINE
  5
1d7
100
AcDbEntity
  8
0
 62
7
100
AcDbPolyline
 90
2
 70
0
 10
91.131180
 20
767.117903
 30
0.0
 10
95.365230
 20
765.983389
 30
0.0
  0
LWPOLYLINE
  5
1d8
100
AcDbEntity
  8
0
 62
7
100
AcDbPolyline
 90
3
 70
0
 10
91.131180
 20
745.643659
 30
0.0
 10
89.996670
 20
749.877709
 30
0.0
 10
83.797590
 20
739.140589
 30
0.0
  0
LWPOLYLINE
  5
1d9
100
AcDbEntity
  8
0
 62
7
100
AcDbPolyline
 90
2
 70
0
 10
89.166150
 20
736.041049
 30
0.0
 10
83.797590
 20
739.140589
 30
0.0
  0
LWPOLYLINE
  5
1da
100
AcDbEntity
  8
0
 62
7
100
AcDbPolyline
 90
2
 70
0
 10
82.967070
 20
725.303921
 30
0.0
 10
89.166150
 20
736.041049
 30
0.0
  0
LWPOLYLINE
  5
1db
100
AcDbEntity
  8
0
 62
7
100
AcDbPolyline
 90
2
 70
0
 10
81.832560
 20
729.537971
 30
0.0
 10
82.967070
 20
725.303921
 30
0.0
  0
LWPOLYLINE
  5
1dc
100
AcDbEntity
  8
0
 62
7
100
AcDbPolyline
 90
2
 70
0
 10
26.040838
 20
729.537971
 30
0.0
 10
32.239919
 20
718.800851
 30
0.0
  0
LWPOLYLINE
  5
1dd
100
AcDbEntity
  8
0
 62
7
100
AcDbPolyline
 90
2
 70
0
 10
97.330260
 20
756.380779
 30
0.0
 10
91.131180
 20
745.643659
 30
0.0
  0
LWPOLYLINE
  5
1de
100
AcDbEntity
  8
0
 62
7
100
AcDbPolyline
 90
2
 70
0
 10
81.832560
 20
783.223584
 30
0.0
 10
75.633488
 20
793.960703
 30
0.0
  0
LWPOLYLINE
  5
1df
100
AcDbEntity
  8
0
 62
7
100
AcDbPolyline
 90
2
 70
0
 10
44.638081
 20
793.960703
 30
0.0
 10
32.239919
 20
793.960703
 30
0.0
  0
LWPOLYLINE
  5
1e0
100
AcDbEntity
  8
0
 62
7
100
AcDbPolyline
 90
3
 70
0
 10
16.742219
 20
767.117903
 30
0.0
 10
10.543138
 20
756.380779
 30
0.0
 10
16.742219
 20
745.643659
 30
0.0
  0
LWPOLYLINE
  5
1e1
100
AcDbEntity
  8
0
 62
7
100
AcDbPolyline
 90
2
 70
0
 10
75.633488
 20
718.800851
 30
0.0
 10
81.832560
 20
729.537971
 30
0.0
  0
LWPOLYLINE
  5
1e2
100
AcDbEntity
  8
0
 62
7
100
AcDbPolyline
 90
2
 70
0
 10
91.131180
 20
767.117903
 30
0.0
 10
97.330260
 20
756.380779
 30
0.0
  0
LWPOLYLINE
  5
1e3
100
AcDbEntity
  8
0
 62
7
100
AcDbPolyline
 90
2
 70
0
 10
75.633488
 20
793.960703
 30
0.0
 10
63.235322
 20
793.960703
 30
0.0
  0
LWPOLYLINE
  5
1e4
100
AcDbEntity
  8
0
 62
7
100
AcDbPolyline
 90
2
 70
0
 10
32.239919
 20
793.960703
 30
0.0
 10
26.040838
 20
783.223584
 30
0.0
  0
LWPOLYLINE
  5
1e5
100
AcDbEntity
  8
0
 62
7
100
AcDbPolyline
 90
4
 70
0
 10
81.832560
 20
804.697823
 30
0.0
 10
82.967070
 20
800.463779
 30
0.0
 10
89.166150
 20
811.200899
 30
0.0
 10
83.797590
 20
814.300439
 30
0.0
  0
LWPOLYLINE
  5
1e6
100
AcDbEntity
  8
0
 62
7
100
AcDbPolyline
 90
2
 70
0
 10
89.996670
 20
825.037559
 30
0.0
 10
83.797590
 20
814.300439
 30
0.0
  0
LWPOLYLINE
  5
1e7
100
AcDbEntity
  8
0
 62
7
100
AcDbPolyline
 90
2
 70
0
 10
91.131180
 20
820.803506
 30
0.0
 10
89.996670
 20
825.037559
 30
0.0
  0
LWPOLYLINE
  5
1e8
100
AcDbEntity
  8
0
 62
7
100
AcDbPolyline
 90
4
 70
0
 10
109.728420
 20
831.540633
 30
0.0
 10
106.628880
 20
828.441093
 30
0.0
 10
119.027048
 20
828.441093
 30
0.0
 10
119.027048
 20
834.640174
 30
0.0
  0
LWPOLYLINE
  5
1e9
100
AcDbEntity
  8
0
 62
7
100
AcDbPolyline
 90
2
 70
0
 10
131.425207
 20
834.640174
 30
0.0
 10
119.027048
 20
834.640174
 30
0.0
  0
LWPOLYLINE
  5
1ea
100
AcDbEntity
  8
0
 62
7
100
AcDbPolyline
 90
2
 70
0
 10
128.325668
 20
831.540633
 30
0.0
 10
131.425207
 20
834.640174
 30
0.0
  0
LWPOLYLINE
  5
1eb
100
AcDbEntity
  8
0
 62
7
100
AcDbPolyline
 90
4
 70
0
 10
146.922900
 20
820.803506
 30
0.0
 10
142.688858
 20
821.938018
 30
0.0
 10
148.887938
 20
811.200899
 30
0.0
 10
154.256490
 20
814.300439
 30
0.0
  0
LWPOLYLINE
  5
1ec
100
AcDbEntity
  8
0
 62
7
100
AcDbPolyline
 90
2
 70
0
 10
160.455578
 20
803.563319
 30
0.0
 10
154.256490
 20
814.300439
 30
0.0
  0
LWPOLYLINE
  5
1ed
100
AcDbEntity
  8
0
 62
7
100
AcDbPolyline
 90
2
 70
0
 10
156.221520
 20
804.697823
 30
0.0
 10
160.455578
 20
803.563319
 30
0.0
  0
LWPOLYLINE
  5
1ee
100
AcDbEntity
  8
0
 62
7
100
AcDbPolyline
 90
3
 70
0
 10
156.221520
 20
783.223584
 30
0.0
 10
155.087018
 20
787.457636
 30
0.0
 10
148.887937
 20
776.720509
 30
0.0
  0
LWPOLYLINE
  5
1ef
100
AcDbEntity
  8
0
 62
7
100
AcDbPolyline
 90
2
 70
0
 10
154.256490
 20
773.620969
 30
0.0
 10
148.887937
 20
776.720509
 30
0.0
  0
LWPOLYLINE
  5
1f0
100
AcDbEntity
  8
0
 62
7
100
AcDbPolyline
 90
2
 70
0
 10
148.057410
 20
762.883849
 30
0.0
 10
154.256490
 20
773.620969
 30
0.0
  0
LWPOLYLINE
  5
1f1
100
AcDbEntity
  8
0
 62
7
100
AcDbPolyline
 90
2
 70
0
 10
146.922900
 20
767.117903
 30
0.0
 10
148.057410
 20
762.883849
 30
0.0
  0
LWPOLYLINE
  5
1f2
100
AcDbEntity
  8
0
 62
7
100
AcDbPolyline
 90
3
 70
0
 10
128.325668
 20
756.380779
 30
0.0
 10
131.425207
 20
759.480319
 30
0.0
 10
119.027048
 20
759.480319
 30
0.0
  0
LWPOLYLINE
  5
1f3
100
AcDbEntity
  8
0
 62
7
100
AcDbPolyline
 90
2
 70
0
 10
119.027048
 20
753.281231
 30
0.0
 10
119.027048
 20
759.480319
 30
0.0
  0
LWPOLYLINE
  5
1f4
100
AcDbEntity
  8
0
 62
7
100
AcDbPolyline
 90
2
 70
0
 10
106.628880
 20
753.281231
 30
0.0
 10
119.027048
 20
753.281231
 30
0.0
  0
LWPOLYLINE
  5
1f5
100
AcDbEntity
  8
0
 62
7
100
AcDbPolyline
 90
2
 70
0
 10
109.728420
 20
756.380779
 30
0.0
 10
106.628880
 20
753.281231
 30
0.0
  0
LWPOLYLINE
  5
1f6
100
AcDbEntity
  8
0
 62
7
100
AcDbPolyline
 90
2
 70
0
 10
81.832560
 20
804.697823
 30
0.0
 10
75.633488
 20
793.960703
 30
0.0
  0
LWPOLYLINE
  5
1f7
100
AcDbEntity
  8
0
 62
7
100
AcDbPolyline
 90
2
 70
0
 10
140.723820
 20
756.380779
 30
0.0
 10
128.325668
 20
756.380779
 30
0.0
  0
LWPOLYLINE
  5
1f8
100
AcDbEntity
  8
0
 62
7
100
AcDbPolyline
 90
2
 70
0
 10
156.221520
 20
783.223584
 30
0.0
 10
162.420600
 20
793.960703
 30
0.0
  0
LWPOLYLINE
  5
1f9
100
AcDbEntity
  8
0
 62
7
100
AcDbPolyline
 90
2
 70
0
 10
146.922900
 20
820.803506
 30
0.0
 10
140.723820
 20
831.540633
 30
0.0
  0
LWPOLYLINE
  5
1fa
100
AcDbEntity
  8
0
 62
7
100
AcDbPolyline
 90
3
 70
0
 10
109.728420
 20
831.540633
 30
0.0
 10
97.330260
 20
831.540633
 30
0.0
 10
91.131180
 20
820.803506
 30
0.0
  0
LWPOLYLINE
  5
1fb
100
AcDbEntity
  8
0
 62
7
100
AcDbPolyline
 90
2
 70
0
 10
97.330260
 20
756.380779
 30
0.0
 10
109.728420
 20
756.380779
 30
0.0
  0
LWPOLYLINE
  5
1fc
100
AcDbEntity
  8
0
 62
7
100
AcDbPolyline
 90
2
 70
0
 10
146.922900
 20
767.117903
 30
0.0
 10
140.723820
 20
756.380779
 30
0.0
  0
LWPOLYLINE
  5
1fd
100
AcDbEntity
  8
0
 62
7
100
AcDbPolyline
 90
2
 70
0
 10
162.420600
 20
793.960703
 30
0.0
 10
156.221520
 20
804.697823
 30
0.0
  0
LWPOLYLINE
  5
1fe
100
AcDbEntity
  8
0
 62
7
100
AcDbPolyline
 90
2
 70
0
 10
140.723820
 20
831.540633
 30
0.0
 10
128.325668
 20
831.540633
 30
0.0
  0
LWPOLYLINE
  5
1ff
100
AcDbEntity
  8
0
 62
7
100
AcDbPolyline
 90
4
 70
0
 10
174.818768
 20
793.960703
 30
0.0
 10
171.719227
 20
790.861163
 30
0.0
 10
184.117388
 20
790.861163
 30
0.0
 10
184.117388
 20
797.060244
 30
0.0
  0
LWPOLYLINE
  5
200
100
AcDbEntity
  8
0
 62
7
100
AcDbPolyline
 90
2
 70
0
 10
196.515548
 20
797.060244
 30
0.0
 10
184.117388
 20
797.060244
 30
0.0
  0
LWPOLYLINE
  5
201
100
AcDbEntity
  8
0
 62
7
100
AcDbPolyline
 90
2
 70
0
 10
193.416008
 20
793.960703
 30
0.0
 10
196.515548
 20
797.060244
 30
0.0
  0
LWPOLYLINE
  5
202
100
AcDbEntity
  8
0
 62
7
100
AcDbPolyline
 90
4
 70
0
 10
212.013255
 20
783.223584
 30
0.0
 10
207.779198
 20
784.358096
 30
0.0
 10
213.978277
 20
773.620969
 30
0.0
 10
219.346837
 20
776.720509
 30
0.0
  0
LWPOLYLINE
  5
203
100
AcDbEntity
  8
0
 62
7
100
AcDbPolyline
 90
2
 70
0
 10
225.545918
 20
765.983389
 30
0.0
 10
219.346837
 20
776.720509
 30
0.0
  0
LWPOLYLINE
  5
204
100
AcDbEntity
  8
0
 62
7
100
AcDbPolyline
 90
2
 70
0
 10
221.311868
 20
767.117903
 30
0.0
 10
225.545918
 20
765.983389
 30
0.0
  0
LWPOLYLINE
  5
205
100
AcDbEntity
  8
0
 62
7
100
AcDbPolyline
 90
4
 70
0
 10
221.311868
 20
745.643659
 30
0.0
 10
220.177365
 20
749.877709
 30
0.0
 10
213.978277
 20
739.140589
 30
0.0
 10
219.346837
 20
736.041049
 30
0.0
  0
LWPOLYLINE
  5
206
100
AcDbEntity
  8
0
 62
7
100
AcDbPolyline
 90
2
 70
0
 10
213.147757
 20
725.303921
 30
0.0
 10
219.346837
 20
736.041049
 30
0.0
  0
LWPOLYLINE
  5
207
100
AcDbEntity
  8
0
 62
7
100
AcDbPolyline
 90
2
 70
0
 10
212.013255
 20
729.537971
 30
0.0
 10
213.147758
 20
725.303921
 30
0.0
  0
LWPOLYLINE
  5
208
100
AcDbEntity
  8
0
 62
7
100
AcDbPolyline
 90
3
 70
0
 10
193.416008
 20
718.800851
 30
0.0
 10
196.515548
 20
721.900391
 30
0.0
 10
184.117388
 20
721.900391
 30
0.0
  0
LWPOLYLINE
  5
209
100
AcDbEntity
  8
0
 62
7
100
AcDbPolyline
 90
2
 70
0
 10
184.117388
 20
715.701311
 30
0.0
 10
184.117388
 20
721.900391
 30
0.0
  0
LWPOLYLINE
  5
20a
100
AcDbEntity
  8
0
 62
7
100
AcDbPolyline
 90
2
 70
0
 10
171.719227
 20
715.701311
 30
0.0
 10
184.117388
 20
715.701311
 30
0.0
  0
LWPOLYLINE
  5
20b
100
AcDbEntity
  8
0
 62
7
100
AcDbPolyline
 90
2
 70
0
 10
174.818768
 20
718.800851
 30
0.0
 10
171.719227
 20
715.701311
 30
0.0
  0
LWPOLYLINE
  5
20c
100
AcDbEntity
  8
0
 62
7
100
AcDbPolyline
 90
3
 70
0
 10
156.221520
 20
729.537971
 30
0.0
 10
160.455578
 20
728.403461
 30
0.0
 10
154.256490
 20
739.140589
 30
0.0
  0
LWPOLYLINE
  5
20d
100
AcDbEntity
  8
0
 62
7
100
AcDbPolyline
 90
2
 70
0
 10
148.887937
 20
736.041049
 30
0.0
 10
154.256490
 20
739.140589
 30
0.0
  0
LWPOLYLINE
  5
20e
100
AcDbEntity
  8
0
 62
7
100
AcDbPolyline
 90
2
 70
0
 10
142.688858
 20
746.778169
 30
0.0
 10
148.887938
 20
736.041049
 30
0.0
  0
LWPOLYLINE
  5
20f
100
AcDbEntity
  8
0
 62
7
100
AcDbPolyline
 90
2
 70
0
 10
146.922900
 20
745.643659
 30
0.0
 10
142.688858
 20
746.778169
 30
0.0
  0
LWPOLYLINE
  5
210
100
AcDbEntity
  8
0
 62
7
100
AcDbPolyline
 90
2
 70
0
 10
174.818768
 20
793.960703
 30
0.0
 10
162.420600
 20
793.960703
 30
0.0
  0
LWPOLYLINE
  5
211
100
AcDbEntity
  8
0
 62
7
100
AcDbPolyline
 90
2
 70
0
 10
162.420600
 20
718.800851
 30
0.0
 10
156.221520
 20
729.537971
 30
0.0
  0
LWPOLYLINE
  5
212
100
AcDbEntity
  8
0
 62
7
100
AcDbPolyline
 90
2
 70
0
 10
193.416008
 20
718.800851
 30
0.0
 10
205.814168
 20
718.800851
 30
0.0
  0
LWPOLYLINE
  5
213
100
AcDbEntity
  8
0
 62
7
100
AcDbPolyline
 90
2
 70
0
 10
221.311868
 20
745.643659
 30
0.0
 10
227.510948
 20
756.380779
 30
0.0
  0
LWPOLYLINE
  5
214
100
AcDbEntity
  8
0
 62
7
100
AcDbPolyline
 90
3
 70
0
 10
212.013255
 20
783.223584
 30
0.0
 10
205.814167
 20
793.960703
 30
0.0
 10
193.416008
 20
793.960703
 30
0.0
  0
LWPOLYLINE
  5
215
100
AcDbEntity
  8
0
 62
7
100
AcDbPolyline
 90
2
 70
0
 10
140.723820
 20
756.380779
 30
0.0
 10
146.922900
 20
745.643659
 30
0.0
  0
LWPOLYLINE
  5
216
100
AcDbEntity
  8
0
 62
7
100
AcDbPolyline
 90
2
 70
0
 10
174.818768
 20
718.800851
 30
0.0
 10
162.420600
 20
718.800851
 30
0.0
  0
LWPOLYLINE
  5
217
100
AcDbEntity
  8
0
 62
7
100
AcDbPolyline
 90
2
 70
0
 10
205.814167
 20
718.800851
 30
0.0
 10
212.013255
 20
729.537971
 30
0.0
  0
LWPOLYLINE
  5
218
100
AcDbEntity
  8
0
 62
7
100
AcDbPolyline
 90
2
 70
0
 10
227.510948
 20
756.380779
 30
0.0
 10
221.311868
 20
767.117903
 30
0.0
  0
LWPOLYLINE
  5
219
100
AcDbEntity
  8
0
 62
7
100
AcDbPolyline
 90
4
 70
0
 10
212.013255
 20
708.063724
 30
0.0
 10
207.779198
 20
709.198241
 30
0.0
 10
213.978277
 20
698.461121
 30
0.0
 10
219.346837
 20
701.560661
 30
0.0
  0
LWPOLYLINE
  5
21a
100
AcDbEntity
  8
0
 62
7
100
AcDbPolyline
 90
2
 70
0
 10
225.545918
 20
690.823541
 30
0.0
 10
219.346837
 20
701.560661
 30
0.0
  0
LWPOLYLINE
  5
21b
100
AcDbEntity
  8
0
 62
7
100
AcDbPolyline
 90
2
 70
0
 10
221.311868
 20
691.958044
 30
0.0
 10
225.545918
 20
690.823541
 30
0.0
  0
LWPOLYLINE
  5
21c
100
AcDbEntity
  8
0
 62
7
100
AcDbPolyline
 90
2
 70
0
 10
221.311868
 20
670.483804
 30
0.0
 10
220.177365
 20
674.717854
 30
0.0
  0
LWPOLYLINE
  5
21d
100
AcDbEntity
  8
0
 62
7
100
AcDbPolyline
 90
2
 70
0
 10
213.978277
 20
663.980726
 30
0.0
 10
219.346837
 20
660.881186
 30
0.0
  0
LWPOLYLINE
  5
21e
100
AcDbEntity
  8
0
 62
7
100
AcDbPolyline
 90
2
 70
0
 10
213.147757
 20
650.144066
 30
0.0
 10
219.346837
 20
660.881186
 30
0.0
  0
LWPOLYLINE
  5
21f
100
AcDbEntity
  8
0
 62
7
100
AcDbPolyline
 90
2
 70
0
 10
212.013255
 20
654.378124
 30
0.0
 10
213.147758
 20
650.144066
 30
0.0
  0
LWPOLYLINE
  5
220
100
AcDbEntity
  8
0
 62
7
100
AcDbPolyline
 90
4
 70
0
 10
193.416008
 20
643.641004
 30
0.0
 10
196.515548
 20
646.740544
 30
0.0
 10
184.117388
 20
646.740544
 30
0.0
 10
184.117388
 20
640.541464
 30
0.0
  0
LWPOLYLINE
  5
221
100
AcDbEntity
  8
0
 62
7
100
AcDbPolyline
 90
2
 70
0
 10
171.719227
 20
640.541464
 30
0.0
 10
184.117388
 20
640.541464
 30
0.0
  0
LWPOLYLINE
  5
222
100
AcDbEntity
  8
0
 62
7
100
AcDbPolyline
 90
2
 70
0
 10
174.818768
 20
643.641004
 30
0.0
 10
171.719227
 20
640.541464
 30
0.0
  0
LWPOLYLINE
  5
223
100
AcDbEntity
  8
0
 62
7
100
AcDbPolyline
 90
3
 70
0
 10
146.922900
 20
691.958044
 30
0.0
 10
148.057410
 20
687.724001
 30
0.0
 10
154.256490
 20
698.461121
 30
0.0
  0
LWPOLYLINE
  5
224
100
AcDbEntity
  8
0
 62
7
100
AcDbPolyline
 90
2
 70
0
 10
148.887937
 20
701.560661
 30
0.0
 10
154.256490
 20
698.461121
 30
0.0
  0
LWPOLYLINE
  5
225
100
AcDbEntity
  8
0
 62
7
100
AcDbPolyline
 90
2
 70
0
 10
155.087018
 20
712.297781
 30
0.0
 10
148.887937
 20
701.560661
 30
0.0
  0
LWPOLYLINE
  5
226
100
AcDbEntity
  8
0
 62
7
100
AcDbPolyline
 90
2
 70
0
 10
156.221520
 20
708.063724
 30
0.0
 10
155.087018
 20
712.297781
 30
0.0
  0
LWPOLYLINE
  5
227
100
AcDbEntity
  8
0
 62
7
100
AcDbPolyline
 90
2
 70
0
 10
212.013255
 20
708.063724
 30
0.0
 10
205.814168
 20
718.800851
 30
0.0
  0
LWPOLYLINE
  5
228
100
AcDbEntity
  8
0
 62
7
100
AcDbPolyline
 90
2
 70
0
 10
140.723820
 20
681.220924
 30
0.0
 10
146.922900
 20
691.958044
 30
0.0
  0
LWPOLYLINE
  5
229
100
AcDbEntity
  8
0
 62
7
100
AcDbPolyline
 90
2
 70
0
 10
193.416008
 20
643.641004
 30
0.0
 10
205.814168
 20
643.641004
 30
0.0
  0
LWPOLYLINE
  5
22a
100
AcDbEntity
  8
0
 62
7
100
AcDbPolyline
 90
3
 70
0
 10
221.311868
 20
670.483804
 30
0.0
 10
227.510948
 20
681.220924
 30
0.0
 10
221.311868
 20
691.958044
 30
0.0
  0
LWPOLYLINE
  5
22b
100
AcDbEntity
  8
0
 62
7
100
AcDbPolyline
 90
2
 70
0
 10
162.420600
 20
718.800851
 30
0.0
 10
156.221520
 20
708.063724
 30
0.0
  0
LWPOLYLINE
  5
22c
100
AcDbEntity
  8
0
 62
7
100
AcDbPolyline
 90
2
 70
0
 10
162.420600
 20
643.641004
 30
0.0
 10
174.818768
 20
643.641004
 30
0.0
  0
LWPOLYLINE
  5
22d
100
AcDbEntity
  8
0
 62
7
100
AcDbPolyline
 90
2
 70
0
 10
205.814167
 20
643.641004
 30
0.0
 10
212.013255
 20
654.378124
 30
0.0
  0
LWPOLYLINE
  5
22e
100
AcDbEntity
  8
0
 62
7
100
AcDbPolyline
 90
2
 70
0
 10
220.177365
 20
674.717854
 30
0.0
 10
213.978277
 20
663.980726
 30
0.0
  0
ENDSEC
  0
SECTION
  2
OBJECTS
  0
DICTIONARY
  5
C
330
0
100
AcDbDictionary
  3
ACAD_GROUP
350
D
  3
ACAD_MLINESTYLE
350
17
  0
DICTIONARY
  5
D
330
C
100
AcDbDictionary
  0
DICTIONARY
  5
1A
330
C
100
AcDbDictionary
  0
DICTIONARY
  5
17
330
C
100
AcDbDictionary
  3
STANDARD
350
18
  0
DICTIONARY
  5
19
330
C
100
AcDbDictionary
  0
ENDSEC
  0
EOF
